<?xml version="1.0" encoding="utf-8" standalone="no"?>
<!DOCTYPE svg PUBLIC "-//W3C//DTD SVG 1.1//EN"
  "http://www.w3.org/Graphics/SVG/1.1/DTD/svg11.dtd">
<!-- Created with matplotlib (http://matplotlib.org/) -->
<svg height="345.6pt" version="1.1" viewBox="0 0 460.8 345.6" width="460.8pt" xmlns="http://www.w3.org/2000/svg" xmlns:xlink="http://www.w3.org/1999/xlink">
 <defs>
  <style type="text/css">
*{stroke-linecap:butt;stroke-linejoin:round;}
  </style>
 </defs>
 <g id="figure_1">
  <g id="patch_1">
   <path d="M 0 345.6 
L 460.8 345.6 
L 460.8 0 
L 0 0 
z
" style="fill:#ffffff;"/>
  </g>
  <g id="axes_1">
   <g id="patch_2">
    <path d="M 57.6 307.584 
L 414.72 307.584 
L 414.72 41.472 
L 57.6 41.472 
z
" style="fill:#ffffff;"/>
   </g>
   <g id="patch_3">
    <path clip-path="url(#p4771079727)" d="M 73.832727 307.584 
L 74.914909 307.584 
L 74.914909 54.144 
L 73.832727 54.144 
z
" style="fill:#1f77b4;"/>
   </g>
   <g id="patch_4">
    <path clip-path="url(#p4771079727)" d="M 74.914909 307.584 
L 75.997091 307.584 
L 75.997091 140.152749 
L 74.914909 140.152749 
z
" style="fill:#1f77b4;"/>
   </g>
   <g id="patch_5">
    <path clip-path="url(#p4771079727)" d="M 75.997091 307.584 
L 77.079273 307.584 
L 77.079273 170.373237 
L 75.997091 170.373237 
z
" style="fill:#1f77b4;"/>
   </g>
   <g id="patch_6">
    <path clip-path="url(#p4771079727)" d="M 77.079273 307.584 
L 78.161455 307.584 
L 78.161455 191.975125 
L 77.079273 191.975125 
z
" style="fill:#1f77b4;"/>
   </g>
   <g id="patch_7">
    <path clip-path="url(#p4771079727)" d="M 78.161455 307.584 
L 79.243636 307.584 
L 79.243636 207.351238 
L 78.161455 207.351238 
z
" style="fill:#1f77b4;"/>
   </g>
   <g id="patch_8">
    <path clip-path="url(#p4771079727)" d="M 79.243636 307.584 
L 80.325818 307.584 
L 80.325818 218.983024 
L 79.243636 218.983024 
z
" style="fill:#1f77b4;"/>
   </g>
   <g id="patch_9">
    <path clip-path="url(#p4771079727)" d="M 80.325818 307.584 
L 81.408 307.584 
L 81.408 231.501042 
L 80.325818 231.501042 
z
" style="fill:#1f77b4;"/>
   </g>
   <g id="patch_10">
    <path clip-path="url(#p4771079727)" d="M 81.408 307.584 
L 82.490182 307.584 
L 82.490182 238.524425 
L 81.408 238.524425 
z
" style="fill:#1f77b4;"/>
   </g>
   <g id="patch_11">
    <path clip-path="url(#p4771079727)" d="M 82.490182 307.584 
L 83.572364 307.584 
L 83.572364 250.200522 
L 82.490182 250.200522 
z
" style="fill:#1f77b4;"/>
   </g>
   <g id="patch_12">
    <path clip-path="url(#p4771079727)" d="M 83.572364 307.584 
L 84.654545 307.584 
L 84.654545 256.559232 
L 83.572364 256.559232 
z
" style="fill:#1f77b4;"/>
   </g>
   <g id="patch_13">
    <path clip-path="url(#p4771079727)" d="M 84.654545 307.584 
L 85.736727 307.584 
L 85.736727 260.480806 
L 84.654545 260.480806 
z
" style="fill:#1f77b4;"/>
   </g>
   <g id="patch_14">
    <path clip-path="url(#p4771079727)" d="M 85.736727 307.584 
L 86.818909 307.584 
L 86.818909 266.485023 
L 85.736727 266.485023 
z
" style="fill:#1f77b4;"/>
   </g>
   <g id="patch_15">
    <path clip-path="url(#p4771079727)" d="M 86.818909 307.584 
L 87.901091 307.584 
L 87.901091 271.447918 
L 86.818909 271.447918 
z
" style="fill:#1f77b4;"/>
   </g>
   <g id="patch_16">
    <path clip-path="url(#p4771079727)" d="M 87.901091 307.584 
L 88.983273 307.584 
L 88.983273 275.258713 
L 87.901091 275.258713 
z
" style="fill:#1f77b4;"/>
   </g>
   <g id="patch_17">
    <path clip-path="url(#p4771079727)" d="M 88.983273 307.584 
L 90.065455 307.584 
L 90.065455 278.604236 
L 88.983273 278.604236 
z
" style="fill:#1f77b4;"/>
   </g>
   <g id="patch_18">
    <path clip-path="url(#p4771079727)" d="M 90.065455 307.584 
L 91.147636 307.584 
L 91.147636 280.664724 
L 90.065455 280.664724 
z
" style="fill:#1f77b4;"/>
   </g>
   <g id="patch_19">
    <path clip-path="url(#p4771079727)" d="M 91.147636 307.584 
L 92.229818 307.584 
L 92.229818 282.570121 
L 91.147636 282.570121 
z
" style="fill:#1f77b4;"/>
   </g>
   <g id="patch_20">
    <path clip-path="url(#p4771079727)" d="M 92.229818 307.584 
L 93.312 307.584 
L 93.312 286.668941 
L 92.229818 286.668941 
z
" style="fill:#1f77b4;"/>
   </g>
   <g id="patch_21">
    <path clip-path="url(#p4771079727)" d="M 93.312 307.584 
L 94.394182 307.584 
L 94.394182 288.219846 
L 93.312 288.219846 
z
" style="fill:#1f77b4;"/>
   </g>
   <g id="patch_22">
    <path clip-path="url(#p4771079727)" d="M 94.394182 307.584 
L 95.476364 307.584 
L 95.476364 289.128233 
L 94.394182 289.128233 
z
" style="fill:#1f77b4;"/>
   </g>
   <g id="patch_23">
    <path clip-path="url(#p4771079727)" d="M 95.476364 307.584 
L 96.558545 307.584 
L 96.558545 291.897706 
L 95.476364 291.897706 
z
" style="fill:#1f77b4;"/>
   </g>
   <g id="patch_24">
    <path clip-path="url(#p4771079727)" d="M 96.558545 307.584 
L 97.640727 307.584 
L 97.640727 292.983339 
L 96.558545 292.983339 
z
" style="fill:#1f77b4;"/>
   </g>
   <g id="patch_25">
    <path clip-path="url(#p4771079727)" d="M 97.640727 307.584 
L 98.722909 307.584 
L 98.722909 294.467777 
L 97.640727 294.467777 
z
" style="fill:#1f77b4;"/>
   </g>
   <g id="patch_26">
    <path clip-path="url(#p4771079727)" d="M 98.722909 307.584 
L 99.805091 307.584 
L 99.805091 295.531254 
L 98.722909 295.531254 
z
" style="fill:#1f77b4;"/>
   </g>
   <g id="patch_27">
    <path clip-path="url(#p4771079727)" d="M 99.805091 307.584 
L 100.887273 307.584 
L 100.887273 295.686345 
L 99.805091 295.686345 
z
" style="fill:#1f77b4;"/>
   </g>
   <g id="patch_28">
    <path clip-path="url(#p4771079727)" d="M 100.887273 307.584 
L 101.969455 307.584 
L 101.969455 297.680365 
L 100.887273 297.680365 
z
" style="fill:#1f77b4;"/>
   </g>
   <g id="patch_29">
    <path clip-path="url(#p4771079727)" d="M 101.969455 307.584 
L 103.051636 307.584 
L 103.051636 297.658209 
L 101.969455 297.658209 
z
" style="fill:#1f77b4;"/>
   </g>
   <g id="patch_30">
    <path clip-path="url(#p4771079727)" d="M 103.051636 307.584 
L 104.133818 307.584 
L 104.133818 298.898933 
L 103.051636 298.898933 
z
" style="fill:#1f77b4;"/>
   </g>
   <g id="patch_31">
    <path clip-path="url(#p4771079727)" d="M 104.133818 307.584 
L 105.216 307.584 
L 105.216 298.38935 
L 104.133818 298.38935 
z
" style="fill:#1f77b4;"/>
   </g>
   <g id="patch_32">
    <path clip-path="url(#p4771079727)" d="M 105.216 307.584 
L 106.298182 307.584 
L 106.298182 299.873788 
L 105.216 299.873788 
z
" style="fill:#1f77b4;"/>
   </g>
   <g id="patch_33">
    <path clip-path="url(#p4771079727)" d="M 106.298182 307.584 
L 107.380364 307.584 
L 107.380364 300.095345 
L 106.298182 300.095345 
z
" style="fill:#1f77b4;"/>
   </g>
   <g id="patch_34">
    <path clip-path="url(#p4771079727)" d="M 107.380364 307.584 
L 108.462545 307.584 
L 108.462545 301.535471 
L 107.380364 301.535471 
z
" style="fill:#1f77b4;"/>
   </g>
   <g id="patch_35">
    <path clip-path="url(#p4771079727)" d="M 108.462545 307.584 
L 109.544727 307.584 
L 109.544727 301.469004 
L 108.462545 301.469004 
z
" style="fill:#1f77b4;"/>
   </g>
   <g id="patch_36">
    <path clip-path="url(#p4771079727)" d="M 109.544727 307.584 
L 110.626909 307.584 
L 110.626909 302.266612 
L 109.544727 302.266612 
z
" style="fill:#1f77b4;"/>
   </g>
   <g id="patch_37">
    <path clip-path="url(#p4771079727)" d="M 110.626909 307.584 
L 111.709091 307.584 
L 111.709091 302.288768 
L 110.626909 302.288768 
z
" style="fill:#1f77b4;"/>
   </g>
   <g id="patch_38">
    <path clip-path="url(#p4771079727)" d="M 111.709091 307.584 
L 112.791273 307.584 
L 112.791273 302.598949 
L 111.709091 302.598949 
z
" style="fill:#1f77b4;"/>
   </g>
   <g id="patch_39">
    <path clip-path="url(#p4771079727)" d="M 112.791273 307.584 
L 113.873455 307.584 
L 113.873455 303.396557 
L 112.791273 303.396557 
z
" style="fill:#1f77b4;"/>
   </g>
   <g id="patch_40">
    <path clip-path="url(#p4771079727)" d="M 113.873455 307.584 
L 114.955636 307.584 
L 114.955636 303.440869 
L 113.873455 303.440869 
z
" style="fill:#1f77b4;"/>
   </g>
   <g id="patch_41">
    <path clip-path="url(#p4771079727)" d="M 114.955636 307.584 
L 116.037818 307.584 
L 116.037818 303.839673 
L 114.955636 303.839673 
z
" style="fill:#1f77b4;"/>
   </g>
   <g id="patch_42">
    <path clip-path="url(#p4771079727)" d="M 116.037818 307.584 
L 117.12 307.584 
L 117.12 303.950452 
L 116.037818 303.950452 
z
" style="fill:#1f77b4;"/>
   </g>
   <g id="patch_43">
    <path clip-path="url(#p4771079727)" d="M 117.12 307.584 
L 118.202182 307.584 
L 118.202182 304.216321 
L 117.12 304.216321 
z
" style="fill:#1f77b4;"/>
   </g>
   <g id="patch_44">
    <path clip-path="url(#p4771079727)" d="M 118.202182 307.584 
L 119.284364 307.584 
L 119.284364 304.48219 
L 118.202182 304.48219 
z
" style="fill:#1f77b4;"/>
   </g>
   <g id="patch_45">
    <path clip-path="url(#p4771079727)" d="M 119.284364 307.584 
L 120.366545 307.584 
L 120.366545 304.526502 
L 119.284364 304.526502 
z
" style="fill:#1f77b4;"/>
   </g>
   <g id="patch_46">
    <path clip-path="url(#p4771079727)" d="M 120.366545 307.584 
L 121.448727 307.584 
L 121.448727 304.637281 
L 120.366545 304.637281 
z
" style="fill:#1f77b4;"/>
   </g>
   <g id="patch_47">
    <path clip-path="url(#p4771079727)" d="M 121.448727 307.584 
L 122.530909 307.584 
L 122.530909 304.90315 
L 121.448727 304.90315 
z
" style="fill:#1f77b4;"/>
   </g>
   <g id="patch_48">
    <path clip-path="url(#p4771079727)" d="M 122.530909 307.584 
L 123.613091 307.584 
L 123.613091 304.437879 
L 122.530909 304.437879 
z
" style="fill:#1f77b4;"/>
   </g>
   <g id="patch_49">
    <path clip-path="url(#p4771079727)" d="M 123.613091 307.584 
L 124.695273 307.584 
L 124.695273 305.102552 
L 123.613091 305.102552 
z
" style="fill:#1f77b4;"/>
   </g>
   <g id="patch_50">
    <path clip-path="url(#p4771079727)" d="M 124.695273 307.584 
L 125.777455 307.584 
L 125.777455 305.16902 
L 124.695273 305.16902 
z
" style="fill:#1f77b4;"/>
   </g>
   <g id="patch_51">
    <path clip-path="url(#p4771079727)" d="M 125.777455 307.584 
L 126.859636 307.584 
L 126.859636 305.390577 
L 125.777455 305.390577 
z
" style="fill:#1f77b4;"/>
   </g>
   <g id="patch_52">
    <path clip-path="url(#p4771079727)" d="M 126.859636 307.584 
L 127.941818 307.584 
L 127.941818 305.656447 
L 126.859636 305.656447 
z
" style="fill:#1f77b4;"/>
   </g>
   <g id="patch_53">
    <path clip-path="url(#p4771079727)" d="M 127.941818 307.584 
L 129.024 307.584 
L 129.024 305.678603 
L 127.941818 305.678603 
z
" style="fill:#1f77b4;"/>
   </g>
   <g id="patch_54">
    <path clip-path="url(#p4771079727)" d="M 129.024 307.584 
L 130.106182 307.584 
L 130.106182 305.833693 
L 129.024 305.833693 
z
" style="fill:#1f77b4;"/>
   </g>
   <g id="patch_55">
    <path clip-path="url(#p4771079727)" d="M 130.106182 307.584 
L 131.188364 307.584 
L 131.188364 306.010939 
L 130.106182 306.010939 
z
" style="fill:#1f77b4;"/>
   </g>
   <g id="patch_56">
    <path clip-path="url(#p4771079727)" d="M 131.188364 307.584 
L 132.270545 307.584 
L 132.270545 306.343276 
L 131.188364 306.343276 
z
" style="fill:#1f77b4;"/>
   </g>
   <g id="patch_57">
    <path clip-path="url(#p4771079727)" d="M 132.270545 307.584 
L 133.352727 307.584 
L 133.352727 306.298965 
L 132.270545 306.298965 
z
" style="fill:#1f77b4;"/>
   </g>
   <g id="patch_58">
    <path clip-path="url(#p4771079727)" d="M 133.352727 307.584 
L 134.434909 307.584 
L 134.434909 305.944472 
L 133.352727 305.944472 
z
" style="fill:#1f77b4;"/>
   </g>
   <g id="patch_59">
    <path clip-path="url(#p4771079727)" d="M 134.434909 307.584 
L 135.517091 307.584 
L 135.517091 306.409744 
L 134.434909 306.409744 
z
" style="fill:#1f77b4;"/>
   </g>
   <g id="patch_60">
    <path clip-path="url(#p4771079727)" d="M 135.517091 307.584 
L 136.599273 307.584 
L 136.599273 306.564834 
L 135.517091 306.564834 
z
" style="fill:#1f77b4;"/>
   </g>
   <g id="patch_61">
    <path clip-path="url(#p4771079727)" d="M 136.599273 307.584 
L 137.681455 307.584 
L 137.681455 306.210341 
L 136.599273 306.210341 
z
" style="fill:#1f77b4;"/>
   </g>
   <g id="patch_62">
    <path clip-path="url(#p4771079727)" d="M 137.681455 307.584 
L 138.763636 307.584 
L 138.763636 306.232497 
L 137.681455 306.232497 
z
" style="fill:#1f77b4;"/>
   </g>
   <g id="patch_63">
    <path clip-path="url(#p4771079727)" d="M 138.763636 307.584 
L 139.845818 307.584 
L 139.845818 306.431899 
L 138.763636 306.431899 
z
" style="fill:#1f77b4;"/>
   </g>
   <g id="patch_64">
    <path clip-path="url(#p4771079727)" d="M 139.845818 307.584 
L 140.928 307.584 
L 140.928 306.276809 
L 139.845818 306.276809 
z
" style="fill:#1f77b4;"/>
   </g>
   <g id="patch_65">
    <path clip-path="url(#p4771079727)" d="M 140.928 307.584 
L 142.010182 307.584 
L 142.010182 306.697769 
L 140.928 306.697769 
z
" style="fill:#1f77b4;"/>
   </g>
   <g id="patch_66">
    <path clip-path="url(#p4771079727)" d="M 142.010182 307.584 
L 143.092364 307.584 
L 143.092364 306.897171 
L 142.010182 306.897171 
z
" style="fill:#1f77b4;"/>
   </g>
   <g id="patch_67">
    <path clip-path="url(#p4771079727)" d="M 143.092364 307.584 
L 144.174545 307.584 
L 144.174545 307.030105 
L 143.092364 307.030105 
z
" style="fill:#1f77b4;"/>
   </g>
   <g id="patch_68">
    <path clip-path="url(#p4771079727)" d="M 144.174545 307.584 
L 145.256727 307.584 
L 145.256727 306.786392 
L 144.174545 306.786392 
z
" style="fill:#1f77b4;"/>
   </g>
   <g id="patch_69">
    <path clip-path="url(#p4771079727)" d="M 145.256727 307.584 
L 146.338909 307.584 
L 146.338909 307.074417 
L 145.256727 307.074417 
z
" style="fill:#1f77b4;"/>
   </g>
   <g id="patch_70">
    <path clip-path="url(#p4771079727)" d="M 146.338909 307.584 
L 147.421091 307.584 
L 147.421091 306.786392 
L 146.338909 306.786392 
z
" style="fill:#1f77b4;"/>
   </g>
   <g id="patch_71">
    <path clip-path="url(#p4771079727)" d="M 147.421091 307.584 
L 148.503273 307.584 
L 148.503273 306.852859 
L 147.421091 306.852859 
z
" style="fill:#1f77b4;"/>
   </g>
   <g id="patch_72">
    <path clip-path="url(#p4771079727)" d="M 148.503273 307.584 
L 149.585455 307.584 
L 149.585455 307.16304 
L 148.503273 307.16304 
z
" style="fill:#1f77b4;"/>
   </g>
   <g id="patch_73">
    <path clip-path="url(#p4771079727)" d="M 149.585455 307.584 
L 150.667636 307.584 
L 150.667636 306.875015 
L 149.585455 306.875015 
z
" style="fill:#1f77b4;"/>
   </g>
   <g id="patch_74">
    <path clip-path="url(#p4771079727)" d="M 150.667636 307.584 
L 151.749818 307.584 
L 151.749818 306.985794 
L 150.667636 306.985794 
z
" style="fill:#1f77b4;"/>
   </g>
   <g id="patch_75">
    <path clip-path="url(#p4771079727)" d="M 151.749818 307.584 
L 152.832 307.584 
L 152.832 307.096573 
L 151.749818 307.096573 
z
" style="fill:#1f77b4;"/>
   </g>
   <g id="patch_76">
    <path clip-path="url(#p4771079727)" d="M 152.832 307.584 
L 153.914182 307.584 
L 153.914182 306.941482 
L 152.832 306.941482 
z
" style="fill:#1f77b4;"/>
   </g>
   <g id="patch_77">
    <path clip-path="url(#p4771079727)" d="M 153.914182 307.584 
L 154.996364 307.584 
L 154.996364 307.074417 
L 153.914182 307.074417 
z
" style="fill:#1f77b4;"/>
   </g>
   <g id="patch_78">
    <path clip-path="url(#p4771079727)" d="M 154.996364 307.584 
L 156.078545 307.584 
L 156.078545 306.74208 
L 154.996364 306.74208 
z
" style="fill:#1f77b4;"/>
   </g>
   <g id="patch_79">
    <path clip-path="url(#p4771079727)" d="M 156.078545 307.584 
L 157.160727 307.584 
L 157.160727 307.074417 
L 156.078545 307.074417 
z
" style="fill:#1f77b4;"/>
   </g>
   <g id="patch_80">
    <path clip-path="url(#p4771079727)" d="M 157.160727 307.584 
L 158.242909 307.584 
L 158.242909 306.897171 
L 157.160727 306.897171 
z
" style="fill:#1f77b4;"/>
   </g>
   <g id="patch_81">
    <path clip-path="url(#p4771079727)" d="M 158.242909 307.584 
L 159.325091 307.584 
L 159.325091 307.185196 
L 158.242909 307.185196 
z
" style="fill:#1f77b4;"/>
   </g>
   <g id="patch_82">
    <path clip-path="url(#p4771079727)" d="M 159.325091 307.584 
L 160.407273 307.584 
L 160.407273 306.919327 
L 159.325091 306.919327 
z
" style="fill:#1f77b4;"/>
   </g>
   <g id="patch_83">
    <path clip-path="url(#p4771079727)" d="M 160.407273 307.584 
L 161.489455 307.584 
L 161.489455 307.00795 
L 160.407273 307.00795 
z
" style="fill:#1f77b4;"/>
   </g>
   <g id="patch_84">
    <path clip-path="url(#p4771079727)" d="M 161.489455 307.584 
L 162.571636 307.584 
L 162.571636 307.185196 
L 161.489455 307.185196 
z
" style="fill:#1f77b4;"/>
   </g>
   <g id="patch_85">
    <path clip-path="url(#p4771079727)" d="M 162.571636 307.584 
L 163.653818 307.584 
L 163.653818 307.251663 
L 162.571636 307.251663 
z
" style="fill:#1f77b4;"/>
   </g>
   <g id="patch_86">
    <path clip-path="url(#p4771079727)" d="M 163.653818 307.584 
L 164.736 307.584 
L 164.736 306.963638 
L 163.653818 306.963638 
z
" style="fill:#1f77b4;"/>
   </g>
   <g id="patch_87">
    <path clip-path="url(#p4771079727)" d="M 164.736 307.584 
L 165.818182 307.584 
L 165.818182 306.941482 
L 164.736 306.941482 
z
" style="fill:#1f77b4;"/>
   </g>
   <g id="patch_88">
    <path clip-path="url(#p4771079727)" d="M 165.818182 307.584 
L 166.900364 307.584 
L 166.900364 307.295975 
L 165.818182 307.295975 
z
" style="fill:#1f77b4;"/>
   </g>
   <g id="patch_89">
    <path clip-path="url(#p4771079727)" d="M 166.900364 307.584 
L 167.982545 307.584 
L 167.982545 307.185196 
L 166.900364 307.185196 
z
" style="fill:#1f77b4;"/>
   </g>
   <g id="patch_90">
    <path clip-path="url(#p4771079727)" d="M 167.982545 307.584 
L 169.064727 307.584 
L 169.064727 307.273819 
L 167.982545 307.273819 
z
" style="fill:#1f77b4;"/>
   </g>
   <g id="patch_91">
    <path clip-path="url(#p4771079727)" d="M 169.064727 307.584 
L 170.146909 307.584 
L 170.146909 307.096573 
L 169.064727 307.096573 
z
" style="fill:#1f77b4;"/>
   </g>
   <g id="patch_92">
    <path clip-path="url(#p4771079727)" d="M 170.146909 307.584 
L 171.229091 307.584 
L 171.229091 307.273819 
L 170.146909 307.273819 
z
" style="fill:#1f77b4;"/>
   </g>
   <g id="patch_93">
    <path clip-path="url(#p4771079727)" d="M 171.229091 307.584 
L 172.311273 307.584 
L 172.311273 307.318131 
L 171.229091 307.318131 
z
" style="fill:#1f77b4;"/>
   </g>
   <g id="patch_94">
    <path clip-path="url(#p4771079727)" d="M 172.311273 307.584 
L 173.393455 307.584 
L 173.393455 307.273819 
L 172.311273 307.273819 
z
" style="fill:#1f77b4;"/>
   </g>
   <g id="patch_95">
    <path clip-path="url(#p4771079727)" d="M 173.393455 307.584 
L 174.475636 307.584 
L 174.475636 307.140884 
L 173.393455 307.140884 
z
" style="fill:#1f77b4;"/>
   </g>
   <g id="patch_96">
    <path clip-path="url(#p4771079727)" d="M 174.475636 307.584 
L 175.557818 307.584 
L 175.557818 307.118729 
L 174.475636 307.118729 
z
" style="fill:#1f77b4;"/>
   </g>
   <g id="patch_97">
    <path clip-path="url(#p4771079727)" d="M 175.557818 307.584 
L 176.64 307.584 
L 176.64 307.273819 
L 175.557818 307.273819 
z
" style="fill:#1f77b4;"/>
   </g>
   <g id="patch_98">
    <path clip-path="url(#p4771079727)" d="M 176.64 307.584 
L 177.722182 307.584 
L 177.722182 307.406754 
L 176.64 307.406754 
z
" style="fill:#1f77b4;"/>
   </g>
   <g id="patch_99">
    <path clip-path="url(#p4771079727)" d="M 177.722182 307.584 
L 178.804364 307.584 
L 178.804364 307.229507 
L 177.722182 307.229507 
z
" style="fill:#1f77b4;"/>
   </g>
   <g id="patch_100">
    <path clip-path="url(#p4771079727)" d="M 178.804364 307.584 
L 179.886545 307.584 
L 179.886545 307.384598 
L 178.804364 307.384598 
z
" style="fill:#1f77b4;"/>
   </g>
   <g id="patch_101">
    <path clip-path="url(#p4771079727)" d="M 179.886545 307.584 
L 180.968727 307.584 
L 180.968727 307.207352 
L 179.886545 307.207352 
z
" style="fill:#1f77b4;"/>
   </g>
   <g id="patch_102">
    <path clip-path="url(#p4771079727)" d="M 180.968727 307.584 
L 182.050909 307.584 
L 182.050909 307.295975 
L 180.968727 307.295975 
z
" style="fill:#1f77b4;"/>
   </g>
   <g id="patch_103">
    <path clip-path="url(#p4771079727)" d="M 182.050909 307.584 
L 183.133091 307.584 
L 183.133091 307.295975 
L 182.050909 307.295975 
z
" style="fill:#1f77b4;"/>
   </g>
   <g id="patch_104">
    <path clip-path="url(#p4771079727)" d="M 183.133091 307.584 
L 184.215273 307.584 
L 184.215273 307.229507 
L 183.133091 307.229507 
z
" style="fill:#1f77b4;"/>
   </g>
   <g id="patch_105">
    <path clip-path="url(#p4771079727)" d="M 184.215273 307.584 
L 185.297455 307.584 
L 185.297455 307.406754 
L 184.215273 307.406754 
z
" style="fill:#1f77b4;"/>
   </g>
   <g id="patch_106">
    <path clip-path="url(#p4771079727)" d="M 185.297455 307.584 
L 186.379636 307.584 
L 186.379636 307.340286 
L 185.297455 307.340286 
z
" style="fill:#1f77b4;"/>
   </g>
   <g id="patch_107">
    <path clip-path="url(#p4771079727)" d="M 186.379636 307.584 
L 187.461818 307.584 
L 187.461818 307.473221 
L 186.379636 307.473221 
z
" style="fill:#1f77b4;"/>
   </g>
   <g id="patch_108">
    <path clip-path="url(#p4771079727)" d="M 187.461818 307.584 
L 188.544 307.584 
L 188.544 307.42891 
L 187.461818 307.42891 
z
" style="fill:#1f77b4;"/>
   </g>
   <g id="patch_109">
    <path clip-path="url(#p4771079727)" d="M 188.544 307.584 
L 189.626182 307.584 
L 189.626182 307.16304 
L 188.544 307.16304 
z
" style="fill:#1f77b4;"/>
   </g>
   <g id="patch_110">
    <path clip-path="url(#p4771079727)" d="M 189.626182 307.584 
L 190.708364 307.584 
L 190.708364 307.318131 
L 189.626182 307.318131 
z
" style="fill:#1f77b4;"/>
   </g>
   <g id="patch_111">
    <path clip-path="url(#p4771079727)" d="M 190.708364 307.584 
L 191.790545 307.584 
L 191.790545 307.473221 
L 190.708364 307.473221 
z
" style="fill:#1f77b4;"/>
   </g>
   <g id="patch_112">
    <path clip-path="url(#p4771079727)" d="M 191.790545 307.584 
L 192.872727 307.584 
L 192.872727 307.384598 
L 191.790545 307.384598 
z
" style="fill:#1f77b4;"/>
   </g>
   <g id="patch_113">
    <path clip-path="url(#p4771079727)" d="M 192.872727 307.584 
L 193.954909 307.584 
L 193.954909 307.495377 
L 192.872727 307.495377 
z
" style="fill:#1f77b4;"/>
   </g>
   <g id="patch_114">
    <path clip-path="url(#p4771079727)" d="M 193.954909 307.584 
L 195.037091 307.584 
L 195.037091 307.362442 
L 193.954909 307.362442 
z
" style="fill:#1f77b4;"/>
   </g>
   <g id="patch_115">
    <path clip-path="url(#p4771079727)" d="M 195.037091 307.584 
L 196.119273 307.584 
L 196.119273 307.473221 
L 195.037091 307.473221 
z
" style="fill:#1f77b4;"/>
   </g>
   <g id="patch_116">
    <path clip-path="url(#p4771079727)" d="M 196.119273 307.584 
L 197.201455 307.584 
L 197.201455 307.473221 
L 196.119273 307.473221 
z
" style="fill:#1f77b4;"/>
   </g>
   <g id="patch_117">
    <path clip-path="url(#p4771079727)" d="M 197.201455 307.584 
L 198.283636 307.584 
L 198.283636 307.451065 
L 197.201455 307.451065 
z
" style="fill:#1f77b4;"/>
   </g>
   <g id="patch_118">
    <path clip-path="url(#p4771079727)" d="M 198.283636 307.584 
L 199.365818 307.584 
L 199.365818 307.251663 
L 198.283636 307.251663 
z
" style="fill:#1f77b4;"/>
   </g>
   <g id="patch_119">
    <path clip-path="url(#p4771079727)" d="M 199.365818 307.584 
L 200.448 307.584 
L 200.448 307.451065 
L 199.365818 307.451065 
z
" style="fill:#1f77b4;"/>
   </g>
   <g id="patch_120">
    <path clip-path="url(#p4771079727)" d="M 200.448 307.584 
L 201.530182 307.584 
L 201.530182 307.473221 
L 200.448 307.473221 
z
" style="fill:#1f77b4;"/>
   </g>
   <g id="patch_121">
    <path clip-path="url(#p4771079727)" d="M 201.530182 307.584 
L 202.612364 307.584 
L 202.612364 307.495377 
L 201.530182 307.495377 
z
" style="fill:#1f77b4;"/>
   </g>
   <g id="patch_122">
    <path clip-path="url(#p4771079727)" d="M 202.612364 307.584 
L 203.694545 307.584 
L 203.694545 307.406754 
L 202.612364 307.406754 
z
" style="fill:#1f77b4;"/>
   </g>
   <g id="patch_123">
    <path clip-path="url(#p4771079727)" d="M 203.694545 307.584 
L 204.776727 307.584 
L 204.776727 307.473221 
L 203.694545 307.473221 
z
" style="fill:#1f77b4;"/>
   </g>
   <g id="patch_124">
    <path clip-path="url(#p4771079727)" d="M 204.776727 307.584 
L 205.858909 307.584 
L 205.858909 307.42891 
L 204.776727 307.42891 
z
" style="fill:#1f77b4;"/>
   </g>
   <g id="patch_125">
    <path clip-path="url(#p4771079727)" d="M 205.858909 307.584 
L 206.941091 307.584 
L 206.941091 307.451065 
L 205.858909 307.451065 
z
" style="fill:#1f77b4;"/>
   </g>
   <g id="patch_126">
    <path clip-path="url(#p4771079727)" d="M 206.941091 307.584 
L 208.023273 307.584 
L 208.023273 307.42891 
L 206.941091 307.42891 
z
" style="fill:#1f77b4;"/>
   </g>
   <g id="patch_127">
    <path clip-path="url(#p4771079727)" d="M 208.023273 307.584 
L 209.105455 307.584 
L 209.105455 307.495377 
L 208.023273 307.495377 
z
" style="fill:#1f77b4;"/>
   </g>
   <g id="patch_128">
    <path clip-path="url(#p4771079727)" d="M 209.105455 307.584 
L 210.187636 307.584 
L 210.187636 307.517533 
L 209.105455 307.517533 
z
" style="fill:#1f77b4;"/>
   </g>
   <g id="patch_129">
    <path clip-path="url(#p4771079727)" d="M 210.187636 307.584 
L 211.269818 307.584 
L 211.269818 307.406754 
L 210.187636 307.406754 
z
" style="fill:#1f77b4;"/>
   </g>
   <g id="patch_130">
    <path clip-path="url(#p4771079727)" d="M 211.269818 307.584 
L 212.352 307.584 
L 212.352 307.495377 
L 211.269818 307.495377 
z
" style="fill:#1f77b4;"/>
   </g>
   <g id="patch_131">
    <path clip-path="url(#p4771079727)" d="M 212.352 307.584 
L 213.434182 307.584 
L 213.434182 307.539688 
L 212.352 307.539688 
z
" style="fill:#1f77b4;"/>
   </g>
   <g id="patch_132">
    <path clip-path="url(#p4771079727)" d="M 213.434182 307.584 
L 214.516364 307.584 
L 214.516364 307.539688 
L 213.434182 307.539688 
z
" style="fill:#1f77b4;"/>
   </g>
   <g id="patch_133">
    <path clip-path="url(#p4771079727)" d="M 214.516364 307.584 
L 215.598545 307.584 
L 215.598545 307.495377 
L 214.516364 307.495377 
z
" style="fill:#1f77b4;"/>
   </g>
   <g id="patch_134">
    <path clip-path="url(#p4771079727)" d="M 215.598545 307.584 
L 216.680727 307.584 
L 216.680727 307.473221 
L 215.598545 307.473221 
z
" style="fill:#1f77b4;"/>
   </g>
   <g id="patch_135">
    <path clip-path="url(#p4771079727)" d="M 216.680727 307.584 
L 217.762909 307.584 
L 217.762909 307.42891 
L 216.680727 307.42891 
z
" style="fill:#1f77b4;"/>
   </g>
   <g id="patch_136">
    <path clip-path="url(#p4771079727)" d="M 217.762909 307.584 
L 218.845091 307.584 
L 218.845091 307.451065 
L 217.762909 307.451065 
z
" style="fill:#1f77b4;"/>
   </g>
   <g id="patch_137">
    <path clip-path="url(#p4771079727)" d="M 218.845091 307.584 
L 219.927273 307.584 
L 219.927273 307.495377 
L 218.845091 307.495377 
z
" style="fill:#1f77b4;"/>
   </g>
   <g id="patch_138">
    <path clip-path="url(#p4771079727)" d="M 219.927273 307.584 
L 221.009455 307.584 
L 221.009455 307.451065 
L 219.927273 307.451065 
z
" style="fill:#1f77b4;"/>
   </g>
   <g id="patch_139">
    <path clip-path="url(#p4771079727)" d="M 221.009455 307.584 
L 222.091636 307.584 
L 222.091636 307.584 
L 221.009455 307.584 
z
" style="fill:#1f77b4;"/>
   </g>
   <g id="patch_140">
    <path clip-path="url(#p4771079727)" d="M 222.091636 307.584 
L 223.173818 307.584 
L 223.173818 307.539688 
L 222.091636 307.539688 
z
" style="fill:#1f77b4;"/>
   </g>
   <g id="patch_141">
    <path clip-path="url(#p4771079727)" d="M 223.173818 307.584 
L 224.256 307.584 
L 224.256 307.473221 
L 223.173818 307.473221 
z
" style="fill:#1f77b4;"/>
   </g>
   <g id="patch_142">
    <path clip-path="url(#p4771079727)" d="M 224.256 307.584 
L 225.338182 307.584 
L 225.338182 307.495377 
L 224.256 307.495377 
z
" style="fill:#1f77b4;"/>
   </g>
   <g id="patch_143">
    <path clip-path="url(#p4771079727)" d="M 225.338182 307.584 
L 226.420364 307.584 
L 226.420364 307.539688 
L 225.338182 307.539688 
z
" style="fill:#1f77b4;"/>
   </g>
   <g id="patch_144">
    <path clip-path="url(#p4771079727)" d="M 226.420364 307.584 
L 227.502545 307.584 
L 227.502545 307.539688 
L 226.420364 307.539688 
z
" style="fill:#1f77b4;"/>
   </g>
   <g id="patch_145">
    <path clip-path="url(#p4771079727)" d="M 227.502545 307.584 
L 228.584727 307.584 
L 228.584727 307.539688 
L 227.502545 307.539688 
z
" style="fill:#1f77b4;"/>
   </g>
   <g id="patch_146">
    <path clip-path="url(#p4771079727)" d="M 228.584727 307.584 
L 229.666909 307.584 
L 229.666909 307.539688 
L 228.584727 307.539688 
z
" style="fill:#1f77b4;"/>
   </g>
   <g id="patch_147">
    <path clip-path="url(#p4771079727)" d="M 229.666909 307.584 
L 230.749091 307.584 
L 230.749091 307.517533 
L 229.666909 307.517533 
z
" style="fill:#1f77b4;"/>
   </g>
   <g id="patch_148">
    <path clip-path="url(#p4771079727)" d="M 230.749091 307.584 
L 231.831273 307.584 
L 231.831273 307.561844 
L 230.749091 307.561844 
z
" style="fill:#1f77b4;"/>
   </g>
   <g id="patch_149">
    <path clip-path="url(#p4771079727)" d="M 231.831273 307.584 
L 232.913455 307.584 
L 232.913455 307.42891 
L 231.831273 307.42891 
z
" style="fill:#1f77b4;"/>
   </g>
   <g id="patch_150">
    <path clip-path="url(#p4771079727)" d="M 232.913455 307.584 
L 233.995636 307.584 
L 233.995636 307.539688 
L 232.913455 307.539688 
z
" style="fill:#1f77b4;"/>
   </g>
   <g id="patch_151">
    <path clip-path="url(#p4771079727)" d="M 233.995636 307.584 
L 235.077818 307.584 
L 235.077818 307.495377 
L 233.995636 307.495377 
z
" style="fill:#1f77b4;"/>
   </g>
   <g id="patch_152">
    <path clip-path="url(#p4771079727)" d="M 235.077818 307.584 
L 236.16 307.584 
L 236.16 307.451065 
L 235.077818 307.451065 
z
" style="fill:#1f77b4;"/>
   </g>
   <g id="patch_153">
    <path clip-path="url(#p4771079727)" d="M 236.16 307.584 
L 237.242182 307.584 
L 237.242182 307.517533 
L 236.16 307.517533 
z
" style="fill:#1f77b4;"/>
   </g>
   <g id="patch_154">
    <path clip-path="url(#p4771079727)" d="M 237.242182 307.584 
L 238.324364 307.584 
L 238.324364 307.495377 
L 237.242182 307.495377 
z
" style="fill:#1f77b4;"/>
   </g>
   <g id="patch_155">
    <path clip-path="url(#p4771079727)" d="M 238.324364 307.584 
L 239.406545 307.584 
L 239.406545 307.539688 
L 238.324364 307.539688 
z
" style="fill:#1f77b4;"/>
   </g>
   <g id="patch_156">
    <path clip-path="url(#p4771079727)" d="M 239.406545 307.584 
L 240.488727 307.584 
L 240.488727 307.561844 
L 239.406545 307.561844 
z
" style="fill:#1f77b4;"/>
   </g>
   <g id="patch_157">
    <path clip-path="url(#p4771079727)" d="M 240.488727 307.584 
L 241.570909 307.584 
L 241.570909 307.473221 
L 240.488727 307.473221 
z
" style="fill:#1f77b4;"/>
   </g>
   <g id="patch_158">
    <path clip-path="url(#p4771079727)" d="M 241.570909 307.584 
L 242.653091 307.584 
L 242.653091 307.539688 
L 241.570909 307.539688 
z
" style="fill:#1f77b4;"/>
   </g>
   <g id="patch_159">
    <path clip-path="url(#p4771079727)" d="M 242.653091 307.584 
L 243.735273 307.584 
L 243.735273 307.584 
L 242.653091 307.584 
z
" style="fill:#1f77b4;"/>
   </g>
   <g id="patch_160">
    <path clip-path="url(#p4771079727)" d="M 243.735273 307.584 
L 244.817455 307.584 
L 244.817455 307.495377 
L 243.735273 307.495377 
z
" style="fill:#1f77b4;"/>
   </g>
   <g id="patch_161">
    <path clip-path="url(#p4771079727)" d="M 244.817455 307.584 
L 245.899636 307.584 
L 245.899636 307.584 
L 244.817455 307.584 
z
" style="fill:#1f77b4;"/>
   </g>
   <g id="patch_162">
    <path clip-path="url(#p4771079727)" d="M 245.899636 307.584 
L 246.981818 307.584 
L 246.981818 307.539688 
L 245.899636 307.539688 
z
" style="fill:#1f77b4;"/>
   </g>
   <g id="patch_163">
    <path clip-path="url(#p4771079727)" d="M 246.981818 307.584 
L 248.064 307.584 
L 248.064 307.517533 
L 246.981818 307.517533 
z
" style="fill:#1f77b4;"/>
   </g>
   <g id="patch_164">
    <path clip-path="url(#p4771079727)" d="M 248.064 307.584 
L 249.146182 307.584 
L 249.146182 307.539688 
L 248.064 307.539688 
z
" style="fill:#1f77b4;"/>
   </g>
   <g id="patch_165">
    <path clip-path="url(#p4771079727)" d="M 249.146182 307.584 
L 250.228364 307.584 
L 250.228364 307.561844 
L 249.146182 307.561844 
z
" style="fill:#1f77b4;"/>
   </g>
   <g id="patch_166">
    <path clip-path="url(#p4771079727)" d="M 250.228364 307.584 
L 251.310545 307.584 
L 251.310545 307.561844 
L 250.228364 307.561844 
z
" style="fill:#1f77b4;"/>
   </g>
   <g id="patch_167">
    <path clip-path="url(#p4771079727)" d="M 251.310545 307.584 
L 252.392727 307.584 
L 252.392727 307.539688 
L 251.310545 307.539688 
z
" style="fill:#1f77b4;"/>
   </g>
   <g id="patch_168">
    <path clip-path="url(#p4771079727)" d="M 252.392727 307.584 
L 253.474909 307.584 
L 253.474909 307.561844 
L 252.392727 307.561844 
z
" style="fill:#1f77b4;"/>
   </g>
   <g id="patch_169">
    <path clip-path="url(#p4771079727)" d="M 253.474909 307.584 
L 254.557091 307.584 
L 254.557091 307.517533 
L 253.474909 307.517533 
z
" style="fill:#1f77b4;"/>
   </g>
   <g id="patch_170">
    <path clip-path="url(#p4771079727)" d="M 254.557091 307.584 
L 255.639273 307.584 
L 255.639273 307.561844 
L 254.557091 307.561844 
z
" style="fill:#1f77b4;"/>
   </g>
   <g id="patch_171">
    <path clip-path="url(#p4771079727)" d="M 255.639273 307.584 
L 256.721455 307.584 
L 256.721455 307.473221 
L 255.639273 307.473221 
z
" style="fill:#1f77b4;"/>
   </g>
   <g id="patch_172">
    <path clip-path="url(#p4771079727)" d="M 256.721455 307.584 
L 257.803636 307.584 
L 257.803636 307.561844 
L 256.721455 307.561844 
z
" style="fill:#1f77b4;"/>
   </g>
   <g id="patch_173">
    <path clip-path="url(#p4771079727)" d="M 257.803636 307.584 
L 258.885818 307.584 
L 258.885818 307.517533 
L 257.803636 307.517533 
z
" style="fill:#1f77b4;"/>
   </g>
   <g id="patch_174">
    <path clip-path="url(#p4771079727)" d="M 258.885818 307.584 
L 259.968 307.584 
L 259.968 307.473221 
L 258.885818 307.473221 
z
" style="fill:#1f77b4;"/>
   </g>
   <g id="patch_175">
    <path clip-path="url(#p4771079727)" d="M 259.968 307.584 
L 261.050182 307.584 
L 261.050182 307.495377 
L 259.968 307.495377 
z
" style="fill:#1f77b4;"/>
   </g>
   <g id="patch_176">
    <path clip-path="url(#p4771079727)" d="M 261.050182 307.584 
L 262.132364 307.584 
L 262.132364 307.584 
L 261.050182 307.584 
z
" style="fill:#1f77b4;"/>
   </g>
   <g id="patch_177">
    <path clip-path="url(#p4771079727)" d="M 262.132364 307.584 
L 263.214545 307.584 
L 263.214545 307.561844 
L 262.132364 307.561844 
z
" style="fill:#1f77b4;"/>
   </g>
   <g id="patch_178">
    <path clip-path="url(#p4771079727)" d="M 263.214545 307.584 
L 264.296727 307.584 
L 264.296727 307.561844 
L 263.214545 307.561844 
z
" style="fill:#1f77b4;"/>
   </g>
   <g id="patch_179">
    <path clip-path="url(#p4771079727)" d="M 264.296727 307.584 
L 265.378909 307.584 
L 265.378909 307.561844 
L 264.296727 307.561844 
z
" style="fill:#1f77b4;"/>
   </g>
   <g id="patch_180">
    <path clip-path="url(#p4771079727)" d="M 265.378909 307.584 
L 266.461091 307.584 
L 266.461091 307.584 
L 265.378909 307.584 
z
" style="fill:#1f77b4;"/>
   </g>
   <g id="patch_181">
    <path clip-path="url(#p4771079727)" d="M 266.461091 307.584 
L 267.543273 307.584 
L 267.543273 307.539688 
L 266.461091 307.539688 
z
" style="fill:#1f77b4;"/>
   </g>
   <g id="patch_182">
    <path clip-path="url(#p4771079727)" d="M 267.543273 307.584 
L 268.625455 307.584 
L 268.625455 307.473221 
L 267.543273 307.473221 
z
" style="fill:#1f77b4;"/>
   </g>
   <g id="patch_183">
    <path clip-path="url(#p4771079727)" d="M 268.625455 307.584 
L 269.707636 307.584 
L 269.707636 307.561844 
L 268.625455 307.561844 
z
" style="fill:#1f77b4;"/>
   </g>
   <g id="patch_184">
    <path clip-path="url(#p4771079727)" d="M 269.707636 307.584 
L 270.789818 307.584 
L 270.789818 307.584 
L 269.707636 307.584 
z
" style="fill:#1f77b4;"/>
   </g>
   <g id="patch_185">
    <path clip-path="url(#p4771079727)" d="M 270.789818 307.584 
L 271.872 307.584 
L 271.872 307.584 
L 270.789818 307.584 
z
" style="fill:#1f77b4;"/>
   </g>
   <g id="patch_186">
    <path clip-path="url(#p4771079727)" d="M 271.872 307.584 
L 272.954182 307.584 
L 272.954182 307.584 
L 271.872 307.584 
z
" style="fill:#1f77b4;"/>
   </g>
   <g id="patch_187">
    <path clip-path="url(#p4771079727)" d="M 272.954182 307.584 
L 274.036364 307.584 
L 274.036364 307.584 
L 272.954182 307.584 
z
" style="fill:#1f77b4;"/>
   </g>
   <g id="patch_188">
    <path clip-path="url(#p4771079727)" d="M 274.036364 307.584 
L 275.118545 307.584 
L 275.118545 307.584 
L 274.036364 307.584 
z
" style="fill:#1f77b4;"/>
   </g>
   <g id="patch_189">
    <path clip-path="url(#p4771079727)" d="M 275.118545 307.584 
L 276.200727 307.584 
L 276.200727 307.561844 
L 275.118545 307.561844 
z
" style="fill:#1f77b4;"/>
   </g>
   <g id="patch_190">
    <path clip-path="url(#p4771079727)" d="M 276.200727 307.584 
L 277.282909 307.584 
L 277.282909 307.584 
L 276.200727 307.584 
z
" style="fill:#1f77b4;"/>
   </g>
   <g id="patch_191">
    <path clip-path="url(#p4771079727)" d="M 277.282909 307.584 
L 278.365091 307.584 
L 278.365091 307.561844 
L 277.282909 307.561844 
z
" style="fill:#1f77b4;"/>
   </g>
   <g id="patch_192">
    <path clip-path="url(#p4771079727)" d="M 278.365091 307.584 
L 279.447273 307.584 
L 279.447273 307.584 
L 278.365091 307.584 
z
" style="fill:#1f77b4;"/>
   </g>
   <g id="patch_193">
    <path clip-path="url(#p4771079727)" d="M 279.447273 307.584 
L 280.529455 307.584 
L 280.529455 307.561844 
L 279.447273 307.561844 
z
" style="fill:#1f77b4;"/>
   </g>
   <g id="patch_194">
    <path clip-path="url(#p4771079727)" d="M 280.529455 307.584 
L 281.611636 307.584 
L 281.611636 307.584 
L 280.529455 307.584 
z
" style="fill:#1f77b4;"/>
   </g>
   <g id="patch_195">
    <path clip-path="url(#p4771079727)" d="M 281.611636 307.584 
L 282.693818 307.584 
L 282.693818 307.584 
L 281.611636 307.584 
z
" style="fill:#1f77b4;"/>
   </g>
   <g id="patch_196">
    <path clip-path="url(#p4771079727)" d="M 282.693818 307.584 
L 283.776 307.584 
L 283.776 307.584 
L 282.693818 307.584 
z
" style="fill:#1f77b4;"/>
   </g>
   <g id="patch_197">
    <path clip-path="url(#p4771079727)" d="M 283.776 307.584 
L 284.858182 307.584 
L 284.858182 307.539688 
L 283.776 307.539688 
z
" style="fill:#1f77b4;"/>
   </g>
   <g id="patch_198">
    <path clip-path="url(#p4771079727)" d="M 284.858182 307.584 
L 285.940364 307.584 
L 285.940364 307.561844 
L 284.858182 307.561844 
z
" style="fill:#1f77b4;"/>
   </g>
   <g id="patch_199">
    <path clip-path="url(#p4771079727)" d="M 285.940364 307.584 
L 287.022545 307.584 
L 287.022545 307.584 
L 285.940364 307.584 
z
" style="fill:#1f77b4;"/>
   </g>
   <g id="patch_200">
    <path clip-path="url(#p4771079727)" d="M 287.022545 307.584 
L 288.104727 307.584 
L 288.104727 307.561844 
L 287.022545 307.561844 
z
" style="fill:#1f77b4;"/>
   </g>
   <g id="patch_201">
    <path clip-path="url(#p4771079727)" d="M 288.104727 307.584 
L 289.186909 307.584 
L 289.186909 307.561844 
L 288.104727 307.561844 
z
" style="fill:#1f77b4;"/>
   </g>
   <g id="patch_202">
    <path clip-path="url(#p4771079727)" d="M 289.186909 307.584 
L 290.269091 307.584 
L 290.269091 307.539688 
L 289.186909 307.539688 
z
" style="fill:#1f77b4;"/>
   </g>
   <g id="patch_203">
    <path clip-path="url(#p4771079727)" d="M 290.269091 307.584 
L 291.351273 307.584 
L 291.351273 307.495377 
L 290.269091 307.495377 
z
" style="fill:#1f77b4;"/>
   </g>
   <g id="patch_204">
    <path clip-path="url(#p4771079727)" d="M 291.351273 307.584 
L 292.433455 307.584 
L 292.433455 307.584 
L 291.351273 307.584 
z
" style="fill:#1f77b4;"/>
   </g>
   <g id="patch_205">
    <path clip-path="url(#p4771079727)" d="M 292.433455 307.584 
L 293.515636 307.584 
L 293.515636 307.561844 
L 292.433455 307.561844 
z
" style="fill:#1f77b4;"/>
   </g>
   <g id="patch_206">
    <path clip-path="url(#p4771079727)" d="M 293.515636 307.584 
L 294.597818 307.584 
L 294.597818 307.584 
L 293.515636 307.584 
z
" style="fill:#1f77b4;"/>
   </g>
   <g id="patch_207">
    <path clip-path="url(#p4771079727)" d="M 294.597818 307.584 
L 295.68 307.584 
L 295.68 307.584 
L 294.597818 307.584 
z
" style="fill:#1f77b4;"/>
   </g>
   <g id="patch_208">
    <path clip-path="url(#p4771079727)" d="M 295.68 307.584 
L 296.762182 307.584 
L 296.762182 307.561844 
L 295.68 307.561844 
z
" style="fill:#1f77b4;"/>
   </g>
   <g id="patch_209">
    <path clip-path="url(#p4771079727)" d="M 296.762182 307.584 
L 297.844364 307.584 
L 297.844364 307.561844 
L 296.762182 307.561844 
z
" style="fill:#1f77b4;"/>
   </g>
   <g id="patch_210">
    <path clip-path="url(#p4771079727)" d="M 297.844364 307.584 
L 298.926545 307.584 
L 298.926545 307.584 
L 297.844364 307.584 
z
" style="fill:#1f77b4;"/>
   </g>
   <g id="patch_211">
    <path clip-path="url(#p4771079727)" d="M 298.926545 307.584 
L 300.008727 307.584 
L 300.008727 307.539688 
L 298.926545 307.539688 
z
" style="fill:#1f77b4;"/>
   </g>
   <g id="patch_212">
    <path clip-path="url(#p4771079727)" d="M 300.008727 307.584 
L 301.090909 307.584 
L 301.090909 307.584 
L 300.008727 307.584 
z
" style="fill:#1f77b4;"/>
   </g>
   <g id="patch_213">
    <path clip-path="url(#p4771079727)" d="M 301.090909 307.584 
L 302.173091 307.584 
L 302.173091 307.584 
L 301.090909 307.584 
z
" style="fill:#1f77b4;"/>
   </g>
   <g id="patch_214">
    <path clip-path="url(#p4771079727)" d="M 302.173091 307.584 
L 303.255273 307.584 
L 303.255273 307.561844 
L 302.173091 307.561844 
z
" style="fill:#1f77b4;"/>
   </g>
   <g id="patch_215">
    <path clip-path="url(#p4771079727)" d="M 303.255273 307.584 
L 304.337455 307.584 
L 304.337455 307.539688 
L 303.255273 307.539688 
z
" style="fill:#1f77b4;"/>
   </g>
   <g id="patch_216">
    <path clip-path="url(#p4771079727)" d="M 304.337455 307.584 
L 305.419636 307.584 
L 305.419636 307.584 
L 304.337455 307.584 
z
" style="fill:#1f77b4;"/>
   </g>
   <g id="patch_217">
    <path clip-path="url(#p4771079727)" d="M 305.419636 307.584 
L 306.501818 307.584 
L 306.501818 307.584 
L 305.419636 307.584 
z
" style="fill:#1f77b4;"/>
   </g>
   <g id="patch_218">
    <path clip-path="url(#p4771079727)" d="M 306.501818 307.584 
L 307.584 307.584 
L 307.584 307.584 
L 306.501818 307.584 
z
" style="fill:#1f77b4;"/>
   </g>
   <g id="patch_219">
    <path clip-path="url(#p4771079727)" d="M 307.584 307.584 
L 308.666182 307.584 
L 308.666182 307.561844 
L 307.584 307.561844 
z
" style="fill:#1f77b4;"/>
   </g>
   <g id="patch_220">
    <path clip-path="url(#p4771079727)" d="M 308.666182 307.584 
L 309.748364 307.584 
L 309.748364 307.561844 
L 308.666182 307.561844 
z
" style="fill:#1f77b4;"/>
   </g>
   <g id="patch_221">
    <path clip-path="url(#p4771079727)" d="M 309.748364 307.584 
L 310.830545 307.584 
L 310.830545 307.584 
L 309.748364 307.584 
z
" style="fill:#1f77b4;"/>
   </g>
   <g id="patch_222">
    <path clip-path="url(#p4771079727)" d="M 310.830545 307.584 
L 311.912727 307.584 
L 311.912727 307.584 
L 310.830545 307.584 
z
" style="fill:#1f77b4;"/>
   </g>
   <g id="patch_223">
    <path clip-path="url(#p4771079727)" d="M 311.912727 307.584 
L 312.994909 307.584 
L 312.994909 307.561844 
L 311.912727 307.561844 
z
" style="fill:#1f77b4;"/>
   </g>
   <g id="patch_224">
    <path clip-path="url(#p4771079727)" d="M 312.994909 307.584 
L 314.077091 307.584 
L 314.077091 307.584 
L 312.994909 307.584 
z
" style="fill:#1f77b4;"/>
   </g>
   <g id="patch_225">
    <path clip-path="url(#p4771079727)" d="M 314.077091 307.584 
L 315.159273 307.584 
L 315.159273 307.584 
L 314.077091 307.584 
z
" style="fill:#1f77b4;"/>
   </g>
   <g id="patch_226">
    <path clip-path="url(#p4771079727)" d="M 315.159273 307.584 
L 316.241455 307.584 
L 316.241455 307.584 
L 315.159273 307.584 
z
" style="fill:#1f77b4;"/>
   </g>
   <g id="patch_227">
    <path clip-path="url(#p4771079727)" d="M 316.241455 307.584 
L 317.323636 307.584 
L 317.323636 307.584 
L 316.241455 307.584 
z
" style="fill:#1f77b4;"/>
   </g>
   <g id="patch_228">
    <path clip-path="url(#p4771079727)" d="M 317.323636 307.584 
L 318.405818 307.584 
L 318.405818 307.584 
L 317.323636 307.584 
z
" style="fill:#1f77b4;"/>
   </g>
   <g id="patch_229">
    <path clip-path="url(#p4771079727)" d="M 318.405818 307.584 
L 319.488 307.584 
L 319.488 307.584 
L 318.405818 307.584 
z
" style="fill:#1f77b4;"/>
   </g>
   <g id="patch_230">
    <path clip-path="url(#p4771079727)" d="M 319.488 307.584 
L 320.570182 307.584 
L 320.570182 307.584 
L 319.488 307.584 
z
" style="fill:#1f77b4;"/>
   </g>
   <g id="patch_231">
    <path clip-path="url(#p4771079727)" d="M 320.570182 307.584 
L 321.652364 307.584 
L 321.652364 307.584 
L 320.570182 307.584 
z
" style="fill:#1f77b4;"/>
   </g>
   <g id="patch_232">
    <path clip-path="url(#p4771079727)" d="M 321.652364 307.584 
L 322.734545 307.584 
L 322.734545 307.561844 
L 321.652364 307.561844 
z
" style="fill:#1f77b4;"/>
   </g>
   <g id="patch_233">
    <path clip-path="url(#p4771079727)" d="M 322.734545 307.584 
L 323.816727 307.584 
L 323.816727 307.584 
L 322.734545 307.584 
z
" style="fill:#1f77b4;"/>
   </g>
   <g id="patch_234">
    <path clip-path="url(#p4771079727)" d="M 323.816727 307.584 
L 324.898909 307.584 
L 324.898909 307.584 
L 323.816727 307.584 
z
" style="fill:#1f77b4;"/>
   </g>
   <g id="patch_235">
    <path clip-path="url(#p4771079727)" d="M 324.898909 307.584 
L 325.981091 307.584 
L 325.981091 307.561844 
L 324.898909 307.561844 
z
" style="fill:#1f77b4;"/>
   </g>
   <g id="patch_236">
    <path clip-path="url(#p4771079727)" d="M 325.981091 307.584 
L 327.063273 307.584 
L 327.063273 307.584 
L 325.981091 307.584 
z
" style="fill:#1f77b4;"/>
   </g>
   <g id="patch_237">
    <path clip-path="url(#p4771079727)" d="M 327.063273 307.584 
L 328.145455 307.584 
L 328.145455 307.584 
L 327.063273 307.584 
z
" style="fill:#1f77b4;"/>
   </g>
   <g id="patch_238">
    <path clip-path="url(#p4771079727)" d="M 328.145455 307.584 
L 329.227636 307.584 
L 329.227636 307.584 
L 328.145455 307.584 
z
" style="fill:#1f77b4;"/>
   </g>
   <g id="patch_239">
    <path clip-path="url(#p4771079727)" d="M 329.227636 307.584 
L 330.309818 307.584 
L 330.309818 307.584 
L 329.227636 307.584 
z
" style="fill:#1f77b4;"/>
   </g>
   <g id="patch_240">
    <path clip-path="url(#p4771079727)" d="M 330.309818 307.584 
L 331.392 307.584 
L 331.392 307.584 
L 330.309818 307.584 
z
" style="fill:#1f77b4;"/>
   </g>
   <g id="patch_241">
    <path clip-path="url(#p4771079727)" d="M 331.392 307.584 
L 332.474182 307.584 
L 332.474182 307.584 
L 331.392 307.584 
z
" style="fill:#1f77b4;"/>
   </g>
   <g id="patch_242">
    <path clip-path="url(#p4771079727)" d="M 332.474182 307.584 
L 333.556364 307.584 
L 333.556364 307.584 
L 332.474182 307.584 
z
" style="fill:#1f77b4;"/>
   </g>
   <g id="patch_243">
    <path clip-path="url(#p4771079727)" d="M 333.556364 307.584 
L 334.638545 307.584 
L 334.638545 307.561844 
L 333.556364 307.561844 
z
" style="fill:#1f77b4;"/>
   </g>
   <g id="patch_244">
    <path clip-path="url(#p4771079727)" d="M 334.638545 307.584 
L 335.720727 307.584 
L 335.720727 307.584 
L 334.638545 307.584 
z
" style="fill:#1f77b4;"/>
   </g>
   <g id="patch_245">
    <path clip-path="url(#p4771079727)" d="M 335.720727 307.584 
L 336.802909 307.584 
L 336.802909 307.584 
L 335.720727 307.584 
z
" style="fill:#1f77b4;"/>
   </g>
   <g id="patch_246">
    <path clip-path="url(#p4771079727)" d="M 336.802909 307.584 
L 337.885091 307.584 
L 337.885091 307.584 
L 336.802909 307.584 
z
" style="fill:#1f77b4;"/>
   </g>
   <g id="patch_247">
    <path clip-path="url(#p4771079727)" d="M 337.885091 307.584 
L 338.967273 307.584 
L 338.967273 307.584 
L 337.885091 307.584 
z
" style="fill:#1f77b4;"/>
   </g>
   <g id="patch_248">
    <path clip-path="url(#p4771079727)" d="M 338.967273 307.584 
L 340.049455 307.584 
L 340.049455 307.584 
L 338.967273 307.584 
z
" style="fill:#1f77b4;"/>
   </g>
   <g id="patch_249">
    <path clip-path="url(#p4771079727)" d="M 340.049455 307.584 
L 341.131636 307.584 
L 341.131636 307.584 
L 340.049455 307.584 
z
" style="fill:#1f77b4;"/>
   </g>
   <g id="patch_250">
    <path clip-path="url(#p4771079727)" d="M 341.131636 307.584 
L 342.213818 307.584 
L 342.213818 307.584 
L 341.131636 307.584 
z
" style="fill:#1f77b4;"/>
   </g>
   <g id="patch_251">
    <path clip-path="url(#p4771079727)" d="M 342.213818 307.584 
L 343.296 307.584 
L 343.296 307.584 
L 342.213818 307.584 
z
" style="fill:#1f77b4;"/>
   </g>
   <g id="patch_252">
    <path clip-path="url(#p4771079727)" d="M 343.296 307.584 
L 344.378182 307.584 
L 344.378182 307.584 
L 343.296 307.584 
z
" style="fill:#1f77b4;"/>
   </g>
   <g id="patch_253">
    <path clip-path="url(#p4771079727)" d="M 344.378182 307.584 
L 345.460364 307.584 
L 345.460364 307.561844 
L 344.378182 307.561844 
z
" style="fill:#1f77b4;"/>
   </g>
   <g id="patch_254">
    <path clip-path="url(#p4771079727)" d="M 345.460364 307.584 
L 346.542545 307.584 
L 346.542545 307.584 
L 345.460364 307.584 
z
" style="fill:#1f77b4;"/>
   </g>
   <g id="patch_255">
    <path clip-path="url(#p4771079727)" d="M 346.542545 307.584 
L 347.624727 307.584 
L 347.624727 307.584 
L 346.542545 307.584 
z
" style="fill:#1f77b4;"/>
   </g>
   <g id="patch_256">
    <path clip-path="url(#p4771079727)" d="M 347.624727 307.584 
L 348.706909 307.584 
L 348.706909 307.584 
L 347.624727 307.584 
z
" style="fill:#1f77b4;"/>
   </g>
   <g id="patch_257">
    <path clip-path="url(#p4771079727)" d="M 348.706909 307.584 
L 349.789091 307.584 
L 349.789091 307.561844 
L 348.706909 307.561844 
z
" style="fill:#1f77b4;"/>
   </g>
   <g id="patch_258">
    <path clip-path="url(#p4771079727)" d="M 349.789091 307.584 
L 350.871273 307.584 
L 350.871273 307.584 
L 349.789091 307.584 
z
" style="fill:#1f77b4;"/>
   </g>
   <g id="patch_259">
    <path clip-path="url(#p4771079727)" d="M 350.871273 307.584 
L 351.953455 307.584 
L 351.953455 307.584 
L 350.871273 307.584 
z
" style="fill:#1f77b4;"/>
   </g>
   <g id="patch_260">
    <path clip-path="url(#p4771079727)" d="M 351.953455 307.584 
L 353.035636 307.584 
L 353.035636 307.584 
L 351.953455 307.584 
z
" style="fill:#1f77b4;"/>
   </g>
   <g id="patch_261">
    <path clip-path="url(#p4771079727)" d="M 353.035636 307.584 
L 354.117818 307.584 
L 354.117818 307.584 
L 353.035636 307.584 
z
" style="fill:#1f77b4;"/>
   </g>
   <g id="patch_262">
    <path clip-path="url(#p4771079727)" d="M 354.117818 307.584 
L 355.2 307.584 
L 355.2 307.584 
L 354.117818 307.584 
z
" style="fill:#1f77b4;"/>
   </g>
   <g id="patch_263">
    <path clip-path="url(#p4771079727)" d="M 355.2 307.584 
L 356.282182 307.584 
L 356.282182 307.561844 
L 355.2 307.561844 
z
" style="fill:#1f77b4;"/>
   </g>
   <g id="patch_264">
    <path clip-path="url(#p4771079727)" d="M 356.282182 307.584 
L 357.364364 307.584 
L 357.364364 307.584 
L 356.282182 307.584 
z
" style="fill:#1f77b4;"/>
   </g>
   <g id="patch_265">
    <path clip-path="url(#p4771079727)" d="M 357.364364 307.584 
L 358.446545 307.584 
L 358.446545 307.584 
L 357.364364 307.584 
z
" style="fill:#1f77b4;"/>
   </g>
   <g id="patch_266">
    <path clip-path="url(#p4771079727)" d="M 358.446545 307.584 
L 359.528727 307.584 
L 359.528727 307.584 
L 358.446545 307.584 
z
" style="fill:#1f77b4;"/>
   </g>
   <g id="patch_267">
    <path clip-path="url(#p4771079727)" d="M 359.528727 307.584 
L 360.610909 307.584 
L 360.610909 307.584 
L 359.528727 307.584 
z
" style="fill:#1f77b4;"/>
   </g>
   <g id="patch_268">
    <path clip-path="url(#p4771079727)" d="M 360.610909 307.584 
L 361.693091 307.584 
L 361.693091 307.584 
L 360.610909 307.584 
z
" style="fill:#1f77b4;"/>
   </g>
   <g id="patch_269">
    <path clip-path="url(#p4771079727)" d="M 361.693091 307.584 
L 362.775273 307.584 
L 362.775273 307.584 
L 361.693091 307.584 
z
" style="fill:#1f77b4;"/>
   </g>
   <g id="patch_270">
    <path clip-path="url(#p4771079727)" d="M 362.775273 307.584 
L 363.857455 307.584 
L 363.857455 307.517533 
L 362.775273 307.517533 
z
" style="fill:#1f77b4;"/>
   </g>
   <g id="patch_271">
    <path clip-path="url(#p4771079727)" d="M 363.857455 307.584 
L 364.939636 307.584 
L 364.939636 307.584 
L 363.857455 307.584 
z
" style="fill:#1f77b4;"/>
   </g>
   <g id="patch_272">
    <path clip-path="url(#p4771079727)" d="M 364.939636 307.584 
L 366.021818 307.584 
L 366.021818 307.584 
L 364.939636 307.584 
z
" style="fill:#1f77b4;"/>
   </g>
   <g id="patch_273">
    <path clip-path="url(#p4771079727)" d="M 366.021818 307.584 
L 367.104 307.584 
L 367.104 307.584 
L 366.021818 307.584 
z
" style="fill:#1f77b4;"/>
   </g>
   <g id="patch_274">
    <path clip-path="url(#p4771079727)" d="M 367.104 307.584 
L 368.186182 307.584 
L 368.186182 307.584 
L 367.104 307.584 
z
" style="fill:#1f77b4;"/>
   </g>
   <g id="patch_275">
    <path clip-path="url(#p4771079727)" d="M 368.186182 307.584 
L 369.268364 307.584 
L 369.268364 307.584 
L 368.186182 307.584 
z
" style="fill:#1f77b4;"/>
   </g>
   <g id="patch_276">
    <path clip-path="url(#p4771079727)" d="M 369.268364 307.584 
L 370.350545 307.584 
L 370.350545 307.584 
L 369.268364 307.584 
z
" style="fill:#1f77b4;"/>
   </g>
   <g id="patch_277">
    <path clip-path="url(#p4771079727)" d="M 370.350545 307.584 
L 371.432727 307.584 
L 371.432727 307.584 
L 370.350545 307.584 
z
" style="fill:#1f77b4;"/>
   </g>
   <g id="patch_278">
    <path clip-path="url(#p4771079727)" d="M 371.432727 307.584 
L 372.514909 307.584 
L 372.514909 307.584 
L 371.432727 307.584 
z
" style="fill:#1f77b4;"/>
   </g>
   <g id="patch_279">
    <path clip-path="url(#p4771079727)" d="M 372.514909 307.584 
L 373.597091 307.584 
L 373.597091 307.584 
L 372.514909 307.584 
z
" style="fill:#1f77b4;"/>
   </g>
   <g id="patch_280">
    <path clip-path="url(#p4771079727)" d="M 373.597091 307.584 
L 374.679273 307.584 
L 374.679273 307.584 
L 373.597091 307.584 
z
" style="fill:#1f77b4;"/>
   </g>
   <g id="patch_281">
    <path clip-path="url(#p4771079727)" d="M 374.679273 307.584 
L 375.761455 307.584 
L 375.761455 307.584 
L 374.679273 307.584 
z
" style="fill:#1f77b4;"/>
   </g>
   <g id="patch_282">
    <path clip-path="url(#p4771079727)" d="M 375.761455 307.584 
L 376.843636 307.584 
L 376.843636 307.584 
L 375.761455 307.584 
z
" style="fill:#1f77b4;"/>
   </g>
   <g id="patch_283">
    <path clip-path="url(#p4771079727)" d="M 376.843636 307.584 
L 377.925818 307.584 
L 377.925818 307.584 
L 376.843636 307.584 
z
" style="fill:#1f77b4;"/>
   </g>
   <g id="patch_284">
    <path clip-path="url(#p4771079727)" d="M 377.925818 307.584 
L 379.008 307.584 
L 379.008 307.584 
L 377.925818 307.584 
z
" style="fill:#1f77b4;"/>
   </g>
   <g id="patch_285">
    <path clip-path="url(#p4771079727)" d="M 379.008 307.584 
L 380.090182 307.584 
L 380.090182 307.584 
L 379.008 307.584 
z
" style="fill:#1f77b4;"/>
   </g>
   <g id="patch_286">
    <path clip-path="url(#p4771079727)" d="M 380.090182 307.584 
L 381.172364 307.584 
L 381.172364 307.584 
L 380.090182 307.584 
z
" style="fill:#1f77b4;"/>
   </g>
   <g id="patch_287">
    <path clip-path="url(#p4771079727)" d="M 381.172364 307.584 
L 382.254545 307.584 
L 382.254545 307.584 
L 381.172364 307.584 
z
" style="fill:#1f77b4;"/>
   </g>
   <g id="patch_288">
    <path clip-path="url(#p4771079727)" d="M 382.254545 307.584 
L 383.336727 307.584 
L 383.336727 307.561844 
L 382.254545 307.561844 
z
" style="fill:#1f77b4;"/>
   </g>
   <g id="patch_289">
    <path clip-path="url(#p4771079727)" d="M 383.336727 307.584 
L 384.418909 307.584 
L 384.418909 307.584 
L 383.336727 307.584 
z
" style="fill:#1f77b4;"/>
   </g>
   <g id="patch_290">
    <path clip-path="url(#p4771079727)" d="M 384.418909 307.584 
L 385.501091 307.584 
L 385.501091 307.584 
L 384.418909 307.584 
z
" style="fill:#1f77b4;"/>
   </g>
   <g id="patch_291">
    <path clip-path="url(#p4771079727)" d="M 385.501091 307.584 
L 386.583273 307.584 
L 386.583273 307.584 
L 385.501091 307.584 
z
" style="fill:#1f77b4;"/>
   </g>
   <g id="patch_292">
    <path clip-path="url(#p4771079727)" d="M 386.583273 307.584 
L 387.665455 307.584 
L 387.665455 307.584 
L 386.583273 307.584 
z
" style="fill:#1f77b4;"/>
   </g>
   <g id="patch_293">
    <path clip-path="url(#p4771079727)" d="M 387.665455 307.584 
L 388.747636 307.584 
L 388.747636 307.584 
L 387.665455 307.584 
z
" style="fill:#1f77b4;"/>
   </g>
   <g id="patch_294">
    <path clip-path="url(#p4771079727)" d="M 388.747636 307.584 
L 389.829818 307.584 
L 389.829818 307.584 
L 388.747636 307.584 
z
" style="fill:#1f77b4;"/>
   </g>
   <g id="patch_295">
    <path clip-path="url(#p4771079727)" d="M 389.829818 307.584 
L 390.912 307.584 
L 390.912 307.584 
L 389.829818 307.584 
z
" style="fill:#1f77b4;"/>
   </g>
   <g id="patch_296">
    <path clip-path="url(#p4771079727)" d="M 390.912 307.584 
L 391.994182 307.584 
L 391.994182 307.584 
L 390.912 307.584 
z
" style="fill:#1f77b4;"/>
   </g>
   <g id="patch_297">
    <path clip-path="url(#p4771079727)" d="M 391.994182 307.584 
L 393.076364 307.584 
L 393.076364 307.584 
L 391.994182 307.584 
z
" style="fill:#1f77b4;"/>
   </g>
   <g id="patch_298">
    <path clip-path="url(#p4771079727)" d="M 393.076364 307.584 
L 394.158545 307.584 
L 394.158545 307.584 
L 393.076364 307.584 
z
" style="fill:#1f77b4;"/>
   </g>
   <g id="patch_299">
    <path clip-path="url(#p4771079727)" d="M 394.158545 307.584 
L 395.240727 307.584 
L 395.240727 307.584 
L 394.158545 307.584 
z
" style="fill:#1f77b4;"/>
   </g>
   <g id="patch_300">
    <path clip-path="url(#p4771079727)" d="M 395.240727 307.584 
L 396.322909 307.584 
L 396.322909 307.539688 
L 395.240727 307.539688 
z
" style="fill:#1f77b4;"/>
   </g>
   <g id="patch_301">
    <path clip-path="url(#p4771079727)" d="M 396.322909 307.584 
L 397.405091 307.584 
L 397.405091 307.584 
L 396.322909 307.584 
z
" style="fill:#1f77b4;"/>
   </g>
   <g id="patch_302">
    <path clip-path="url(#p4771079727)" d="M 397.405091 307.584 
L 398.487273 307.584 
L 398.487273 307.561844 
L 397.405091 307.561844 
z
" style="fill:#1f77b4;"/>
   </g>
   <g id="matplotlib.axis_1">
    <g id="xtick_1">
     <g id="line2d_1">
      <defs>
       <path d="M 0 0 
L 0 3.5 
" id="mf502c18c9f" style="stroke:#000000;stroke-width:0.8;"/>
      </defs>
      <g>
       <use style="stroke:#000000;stroke-width:0.8;" x="73.832704" xlink:href="#mf502c18c9f" y="307.584"/>
      </g>
     </g>
     <g id="text_1">
      <!-- 0.0 -->
      <defs>
       <path d="M 31.78125 66.40625 
Q 24.171875 66.40625 20.328125 58.90625 
Q 16.5 51.421875 16.5 36.375 
Q 16.5 21.390625 20.328125 13.890625 
Q 24.171875 6.390625 31.78125 6.390625 
Q 39.453125 6.390625 43.28125 13.890625 
Q 47.125 21.390625 47.125 36.375 
Q 47.125 51.421875 43.28125 58.90625 
Q 39.453125 66.40625 31.78125 66.40625 
z
M 31.78125 74.21875 
Q 44.046875 74.21875 50.515625 64.515625 
Q 56.984375 54.828125 56.984375 36.375 
Q 56.984375 17.96875 50.515625 8.265625 
Q 44.046875 -1.421875 31.78125 -1.421875 
Q 19.53125 -1.421875 13.0625 8.265625 
Q 6.59375 17.96875 6.59375 36.375 
Q 6.59375 54.828125 13.0625 64.515625 
Q 19.53125 74.21875 31.78125 74.21875 
z
" id="DejaVuSans-30"/>
       <path d="M 10.6875 12.40625 
L 21 12.40625 
L 21 0 
L 10.6875 0 
z
" id="DejaVuSans-2e"/>
      </defs>
      <g transform="translate(65.881141 322.182437)scale(0.1 -0.1)">
       <use xlink:href="#DejaVuSans-30"/>
       <use x="63.623047" xlink:href="#DejaVuSans-2e"/>
       <use x="95.410156" xlink:href="#DejaVuSans-30"/>
      </g>
     </g>
    </g>
    <g id="xtick_2">
     <g id="line2d_2">
      <g>
       <use style="stroke:#000000;stroke-width:0.8;" x="113.606218" xlink:href="#mf502c18c9f" y="307.584"/>
      </g>
     </g>
     <g id="text_2">
      <!-- 0.5 -->
      <defs>
       <path d="M 10.796875 72.90625 
L 49.515625 72.90625 
L 49.515625 64.59375 
L 19.828125 64.59375 
L 19.828125 46.734375 
Q 21.96875 47.46875 24.109375 47.828125 
Q 26.265625 48.1875 28.421875 48.1875 
Q 40.625 48.1875 47.75 41.5 
Q 54.890625 34.8125 54.890625 23.390625 
Q 54.890625 11.625 47.5625 5.09375 
Q 40.234375 -1.421875 26.90625 -1.421875 
Q 22.3125 -1.421875 17.546875 -0.640625 
Q 12.796875 0.140625 7.71875 1.703125 
L 7.71875 11.625 
Q 12.109375 9.234375 16.796875 8.0625 
Q 21.484375 6.890625 26.703125 6.890625 
Q 35.15625 6.890625 40.078125 11.328125 
Q 45.015625 15.765625 45.015625 23.390625 
Q 45.015625 31 40.078125 35.4375 
Q 35.15625 39.890625 26.703125 39.890625 
Q 22.75 39.890625 18.8125 39.015625 
Q 14.890625 38.140625 10.796875 36.28125 
z
" id="DejaVuSans-35"/>
      </defs>
      <g transform="translate(105.654656 322.182437)scale(0.1 -0.1)">
       <use xlink:href="#DejaVuSans-30"/>
       <use x="63.623047" xlink:href="#DejaVuSans-2e"/>
       <use x="95.410156" xlink:href="#DejaVuSans-35"/>
      </g>
     </g>
    </g>
    <g id="xtick_3">
     <g id="line2d_3">
      <g>
       <use style="stroke:#000000;stroke-width:0.8;" x="153.379732" xlink:href="#mf502c18c9f" y="307.584"/>
      </g>
     </g>
     <g id="text_3">
      <!-- 1.0 -->
      <defs>
       <path d="M 12.40625 8.296875 
L 28.515625 8.296875 
L 28.515625 63.921875 
L 10.984375 60.40625 
L 10.984375 69.390625 
L 28.421875 72.90625 
L 38.28125 72.90625 
L 38.28125 8.296875 
L 54.390625 8.296875 
L 54.390625 0 
L 12.40625 0 
z
" id="DejaVuSans-31"/>
      </defs>
      <g transform="translate(145.42817 322.182437)scale(0.1 -0.1)">
       <use xlink:href="#DejaVuSans-31"/>
       <use x="63.623047" xlink:href="#DejaVuSans-2e"/>
       <use x="95.410156" xlink:href="#DejaVuSans-30"/>
      </g>
     </g>
    </g>
    <g id="xtick_4">
     <g id="line2d_4">
      <g>
       <use style="stroke:#000000;stroke-width:0.8;" x="193.153246" xlink:href="#mf502c18c9f" y="307.584"/>
      </g>
     </g>
     <g id="text_4">
      <!-- 1.5 -->
      <g transform="translate(185.201684 322.182437)scale(0.1 -0.1)">
       <use xlink:href="#DejaVuSans-31"/>
       <use x="63.623047" xlink:href="#DejaVuSans-2e"/>
       <use x="95.410156" xlink:href="#DejaVuSans-35"/>
      </g>
     </g>
    </g>
    <g id="xtick_5">
     <g id="line2d_5">
      <g>
       <use style="stroke:#000000;stroke-width:0.8;" x="232.92676" xlink:href="#mf502c18c9f" y="307.584"/>
      </g>
     </g>
     <g id="text_5">
      <!-- 2.0 -->
      <defs>
       <path d="M 19.1875 8.296875 
L 53.609375 8.296875 
L 53.609375 0 
L 7.328125 0 
L 7.328125 8.296875 
Q 12.9375 14.109375 22.625 23.890625 
Q 32.328125 33.6875 34.8125 36.53125 
Q 39.546875 41.84375 41.421875 45.53125 
Q 43.3125 49.21875 43.3125 52.78125 
Q 43.3125 58.59375 39.234375 62.25 
Q 35.15625 65.921875 28.609375 65.921875 
Q 23.96875 65.921875 18.8125 64.3125 
Q 13.671875 62.703125 7.8125 59.421875 
L 7.8125 69.390625 
Q 13.765625 71.78125 18.9375 73 
Q 24.125 74.21875 28.421875 74.21875 
Q 39.75 74.21875 46.484375 68.546875 
Q 53.21875 62.890625 53.21875 53.421875 
Q 53.21875 48.921875 51.53125 44.890625 
Q 49.859375 40.875 45.40625 35.40625 
Q 44.1875 33.984375 37.640625 27.21875 
Q 31.109375 20.453125 19.1875 8.296875 
z
" id="DejaVuSans-32"/>
      </defs>
      <g transform="translate(224.975198 322.182437)scale(0.1 -0.1)">
       <use xlink:href="#DejaVuSans-32"/>
       <use x="63.623047" xlink:href="#DejaVuSans-2e"/>
       <use x="95.410156" xlink:href="#DejaVuSans-30"/>
      </g>
     </g>
    </g>
    <g id="xtick_6">
     <g id="line2d_6">
      <g>
       <use style="stroke:#000000;stroke-width:0.8;" x="272.700274" xlink:href="#mf502c18c9f" y="307.584"/>
      </g>
     </g>
     <g id="text_6">
      <!-- 2.5 -->
      <g transform="translate(264.748712 322.182437)scale(0.1 -0.1)">
       <use xlink:href="#DejaVuSans-32"/>
       <use x="63.623047" xlink:href="#DejaVuSans-2e"/>
       <use x="95.410156" xlink:href="#DejaVuSans-35"/>
      </g>
     </g>
    </g>
    <g id="xtick_7">
     <g id="line2d_7">
      <g>
       <use style="stroke:#000000;stroke-width:0.8;" x="312.473788" xlink:href="#mf502c18c9f" y="307.584"/>
      </g>
     </g>
     <g id="text_7">
      <!-- 3.0 -->
      <defs>
       <path d="M 40.578125 39.3125 
Q 47.65625 37.796875 51.625 33 
Q 55.609375 28.21875 55.609375 21.1875 
Q 55.609375 10.40625 48.1875 4.484375 
Q 40.765625 -1.421875 27.09375 -1.421875 
Q 22.515625 -1.421875 17.65625 -0.515625 
Q 12.796875 0.390625 7.625 2.203125 
L 7.625 11.71875 
Q 11.71875 9.328125 16.59375 8.109375 
Q 21.484375 6.890625 26.8125 6.890625 
Q 36.078125 6.890625 40.9375 10.546875 
Q 45.796875 14.203125 45.796875 21.1875 
Q 45.796875 27.640625 41.28125 31.265625 
Q 36.765625 34.90625 28.71875 34.90625 
L 20.21875 34.90625 
L 20.21875 43.015625 
L 29.109375 43.015625 
Q 36.375 43.015625 40.234375 45.921875 
Q 44.09375 48.828125 44.09375 54.296875 
Q 44.09375 59.90625 40.109375 62.90625 
Q 36.140625 65.921875 28.71875 65.921875 
Q 24.65625 65.921875 20.015625 65.03125 
Q 15.375 64.15625 9.8125 62.3125 
L 9.8125 71.09375 
Q 15.4375 72.65625 20.34375 73.4375 
Q 25.25 74.21875 29.59375 74.21875 
Q 40.828125 74.21875 47.359375 69.109375 
Q 53.90625 64.015625 53.90625 55.328125 
Q 53.90625 49.265625 50.4375 45.09375 
Q 46.96875 40.921875 40.578125 39.3125 
z
" id="DejaVuSans-33"/>
      </defs>
      <g transform="translate(304.522226 322.182437)scale(0.1 -0.1)">
       <use xlink:href="#DejaVuSans-33"/>
       <use x="63.623047" xlink:href="#DejaVuSans-2e"/>
       <use x="95.410156" xlink:href="#DejaVuSans-30"/>
      </g>
     </g>
    </g>
    <g id="xtick_8">
     <g id="line2d_8">
      <g>
       <use style="stroke:#000000;stroke-width:0.8;" x="352.247303" xlink:href="#mf502c18c9f" y="307.584"/>
      </g>
     </g>
     <g id="text_8">
      <!-- 3.5 -->
      <g transform="translate(344.29574 322.182437)scale(0.1 -0.1)">
       <use xlink:href="#DejaVuSans-33"/>
       <use x="63.623047" xlink:href="#DejaVuSans-2e"/>
       <use x="95.410156" xlink:href="#DejaVuSans-35"/>
      </g>
     </g>
    </g>
    <g id="xtick_9">
     <g id="line2d_9">
      <g>
       <use style="stroke:#000000;stroke-width:0.8;" x="392.020817" xlink:href="#mf502c18c9f" y="307.584"/>
      </g>
     </g>
     <g id="text_9">
      <!-- 4.0 -->
      <defs>
       <path d="M 37.796875 64.3125 
L 12.890625 25.390625 
L 37.796875 25.390625 
z
M 35.203125 72.90625 
L 47.609375 72.90625 
L 47.609375 25.390625 
L 58.015625 25.390625 
L 58.015625 17.1875 
L 47.609375 17.1875 
L 47.609375 0 
L 37.796875 0 
L 37.796875 17.1875 
L 4.890625 17.1875 
L 4.890625 26.703125 
z
" id="DejaVuSans-34"/>
      </defs>
      <g transform="translate(384.069254 322.182437)scale(0.1 -0.1)">
       <use xlink:href="#DejaVuSans-34"/>
       <use x="63.623047" xlink:href="#DejaVuSans-2e"/>
       <use x="95.410156" xlink:href="#DejaVuSans-30"/>
      </g>
     </g>
    </g>
    <g id="text_10">
     <!-- $\%$ -->
     <defs>
      <path d="M 72.703125 32.078125 
Q 68.453125 32.078125 66.03125 28.46875 
Q 63.625 24.859375 63.625 18.40625 
Q 63.625 12.0625 66.03125 8.421875 
Q 68.453125 4.78125 72.703125 4.78125 
Q 76.859375 4.78125 79.265625 8.421875 
Q 81.6875 12.0625 81.6875 18.40625 
Q 81.6875 24.8125 79.265625 28.4375 
Q 76.859375 32.078125 72.703125 32.078125 
z
M 72.703125 38.28125 
Q 80.421875 38.28125 84.953125 32.90625 
Q 89.5 27.546875 89.5 18.40625 
Q 89.5 9.28125 84.9375 3.921875 
Q 80.375 -1.421875 72.703125 -1.421875 
Q 64.890625 -1.421875 60.34375 3.921875 
Q 55.8125 9.28125 55.8125 18.40625 
Q 55.8125 27.59375 60.375 32.9375 
Q 64.9375 38.28125 72.703125 38.28125 
z
M 22.3125 68.015625 
Q 18.109375 68.015625 15.6875 64.375 
Q 13.28125 60.75 13.28125 54.390625 
Q 13.28125 47.953125 15.671875 44.328125 
Q 18.0625 40.71875 22.3125 40.71875 
Q 26.5625 40.71875 28.96875 44.328125 
Q 31.390625 47.953125 31.390625 54.390625 
Q 31.390625 60.6875 28.953125 64.34375 
Q 26.515625 68.015625 22.3125 68.015625 
z
M 66.40625 74.21875 
L 74.21875 74.21875 
L 28.609375 -1.421875 
L 20.796875 -1.421875 
z
M 22.3125 74.21875 
Q 30.03125 74.21875 34.609375 68.875 
Q 39.203125 63.53125 39.203125 54.390625 
Q 39.203125 45.171875 34.640625 39.84375 
Q 30.078125 34.515625 22.3125 34.515625 
Q 14.546875 34.515625 10.03125 39.859375 
Q 5.515625 45.21875 5.515625 54.390625 
Q 5.515625 63.484375 10.046875 68.84375 
Q 14.59375 74.21875 22.3125 74.21875 
z
" id="DejaVuSans-25"/>
     </defs>
     <g transform="translate(231.36 335.860562)scale(0.1 -0.1)">
      <use transform="translate(0 0.78125)" xlink:href="#DejaVuSans-25"/>
     </g>
    </g>
   </g>
   <g id="matplotlib.axis_2">
    <g id="ytick_1">
     <g id="line2d_10">
      <defs>
       <path d="M 0 0 
L -3.5 0 
" id="m22f7e4ad34" style="stroke:#000000;stroke-width:0.8;"/>
      </defs>
      <g>
       <use style="stroke:#000000;stroke-width:0.8;" x="57.6" xlink:href="#m22f7e4ad34" y="307.584"/>
      </g>
     </g>
    </g>
    <g id="ytick_2">
     <g id="line2d_11">
      <g>
       <use style="stroke:#000000;stroke-width:0.8;" x="57.6" xlink:href="#m22f7e4ad34" y="263.272434"/>
      </g>
     </g>
    </g>
    <g id="ytick_3">
     <g id="line2d_12">
      <g>
       <use style="stroke:#000000;stroke-width:0.8;" x="57.6" xlink:href="#m22f7e4ad34" y="218.960869"/>
      </g>
     </g>
    </g>
    <g id="ytick_4">
     <g id="line2d_13">
      <g>
       <use style="stroke:#000000;stroke-width:0.8;" x="57.6" xlink:href="#m22f7e4ad34" y="174.649303"/>
      </g>
     </g>
    </g>
    <g id="ytick_5">
     <g id="line2d_14">
      <g>
       <use style="stroke:#000000;stroke-width:0.8;" x="57.6" xlink:href="#m22f7e4ad34" y="130.337737"/>
      </g>
     </g>
    </g>
    <g id="ytick_6">
     <g id="line2d_15">
      <g>
       <use style="stroke:#000000;stroke-width:0.8;" x="57.6" xlink:href="#m22f7e4ad34" y="86.026172"/>
      </g>
     </g>
    </g>
    <g id="ytick_7">
     <g id="line2d_16">
      <g>
       <use style="stroke:#000000;stroke-width:0.8;" x="57.6" xlink:href="#m22f7e4ad34" y="41.714606"/>
      </g>
     </g>
    </g>
   </g>
   <g id="patch_303">
    <path d="M 57.6 307.584 
L 57.6 41.472 
" style="fill:none;stroke:#000000;stroke-linecap:square;stroke-linejoin:miter;stroke-width:0.8;"/>
   </g>
   <g id="patch_304">
    <path d="M 414.72 307.584 
L 414.72 41.472 
" style="fill:none;stroke:#000000;stroke-linecap:square;stroke-linejoin:miter;stroke-width:0.8;"/>
   </g>
   <g id="patch_305">
    <path d="M 57.6 307.584 
L 414.72 307.584 
" style="fill:none;stroke:#000000;stroke-linecap:square;stroke-linejoin:miter;stroke-width:0.8;"/>
   </g>
   <g id="patch_306">
    <path d="M 57.6 41.472 
L 414.72 41.472 
" style="fill:none;stroke:#000000;stroke-linecap:square;stroke-linejoin:miter;stroke-width:0.8;"/>
   </g>
   <g id="text_11">
    <!-- window=64 -->
    <defs>
     <path d="M 4.203125 54.6875 
L 13.1875 54.6875 
L 24.421875 12.015625 
L 35.59375 54.6875 
L 46.1875 54.6875 
L 57.421875 12.015625 
L 68.609375 54.6875 
L 77.59375 54.6875 
L 63.28125 0 
L 52.6875 0 
L 40.921875 44.828125 
L 29.109375 0 
L 18.5 0 
z
" id="DejaVuSans-77"/>
     <path d="M 9.421875 54.6875 
L 18.40625 54.6875 
L 18.40625 0 
L 9.421875 0 
z
M 9.421875 75.984375 
L 18.40625 75.984375 
L 18.40625 64.59375 
L 9.421875 64.59375 
z
" id="DejaVuSans-69"/>
     <path d="M 54.890625 33.015625 
L 54.890625 0 
L 45.90625 0 
L 45.90625 32.71875 
Q 45.90625 40.484375 42.875 44.328125 
Q 39.84375 48.1875 33.796875 48.1875 
Q 26.515625 48.1875 22.3125 43.546875 
Q 18.109375 38.921875 18.109375 30.90625 
L 18.109375 0 
L 9.078125 0 
L 9.078125 54.6875 
L 18.109375 54.6875 
L 18.109375 46.1875 
Q 21.34375 51.125 25.703125 53.5625 
Q 30.078125 56 35.796875 56 
Q 45.21875 56 50.046875 50.171875 
Q 54.890625 44.34375 54.890625 33.015625 
z
" id="DejaVuSans-6e"/>
     <path d="M 45.40625 46.390625 
L 45.40625 75.984375 
L 54.390625 75.984375 
L 54.390625 0 
L 45.40625 0 
L 45.40625 8.203125 
Q 42.578125 3.328125 38.25 0.953125 
Q 33.9375 -1.421875 27.875 -1.421875 
Q 17.96875 -1.421875 11.734375 6.484375 
Q 5.515625 14.40625 5.515625 27.296875 
Q 5.515625 40.1875 11.734375 48.09375 
Q 17.96875 56 27.875 56 
Q 33.9375 56 38.25 53.625 
Q 42.578125 51.265625 45.40625 46.390625 
z
M 14.796875 27.296875 
Q 14.796875 17.390625 18.875 11.75 
Q 22.953125 6.109375 30.078125 6.109375 
Q 37.203125 6.109375 41.296875 11.75 
Q 45.40625 17.390625 45.40625 27.296875 
Q 45.40625 37.203125 41.296875 42.84375 
Q 37.203125 48.484375 30.078125 48.484375 
Q 22.953125 48.484375 18.875 42.84375 
Q 14.796875 37.203125 14.796875 27.296875 
z
" id="DejaVuSans-64"/>
     <path d="M 30.609375 48.390625 
Q 23.390625 48.390625 19.1875 42.75 
Q 14.984375 37.109375 14.984375 27.296875 
Q 14.984375 17.484375 19.15625 11.84375 
Q 23.34375 6.203125 30.609375 6.203125 
Q 37.796875 6.203125 41.984375 11.859375 
Q 46.1875 17.53125 46.1875 27.296875 
Q 46.1875 37.015625 41.984375 42.703125 
Q 37.796875 48.390625 30.609375 48.390625 
z
M 30.609375 56 
Q 42.328125 56 49.015625 48.375 
Q 55.71875 40.765625 55.71875 27.296875 
Q 55.71875 13.875 49.015625 6.21875 
Q 42.328125 -1.421875 30.609375 -1.421875 
Q 18.84375 -1.421875 12.171875 6.21875 
Q 5.515625 13.875 5.515625 27.296875 
Q 5.515625 40.765625 12.171875 48.375 
Q 18.84375 56 30.609375 56 
z
" id="DejaVuSans-6f"/>
     <path d="M 10.59375 45.40625 
L 73.1875 45.40625 
L 73.1875 37.203125 
L 10.59375 37.203125 
z
M 10.59375 25.484375 
L 73.1875 25.484375 
L 73.1875 17.1875 
L 10.59375 17.1875 
z
" id="DejaVuSans-3d"/>
     <path d="M 33.015625 40.375 
Q 26.375 40.375 22.484375 35.828125 
Q 18.609375 31.296875 18.609375 23.390625 
Q 18.609375 15.53125 22.484375 10.953125 
Q 26.375 6.390625 33.015625 6.390625 
Q 39.65625 6.390625 43.53125 10.953125 
Q 47.40625 15.53125 47.40625 23.390625 
Q 47.40625 31.296875 43.53125 35.828125 
Q 39.65625 40.375 33.015625 40.375 
z
M 52.59375 71.296875 
L 52.59375 62.3125 
Q 48.875 64.0625 45.09375 64.984375 
Q 41.3125 65.921875 37.59375 65.921875 
Q 27.828125 65.921875 22.671875 59.328125 
Q 17.53125 52.734375 16.796875 39.40625 
Q 19.671875 43.65625 24.015625 45.921875 
Q 28.375 48.1875 33.59375 48.1875 
Q 44.578125 48.1875 50.953125 41.515625 
Q 57.328125 34.859375 57.328125 23.390625 
Q 57.328125 12.15625 50.6875 5.359375 
Q 44.046875 -1.421875 33.015625 -1.421875 
Q 20.359375 -1.421875 13.671875 8.265625 
Q 6.984375 17.96875 6.984375 36.375 
Q 6.984375 53.65625 15.1875 63.9375 
Q 23.390625 74.21875 37.203125 74.21875 
Q 40.921875 74.21875 44.703125 73.484375 
Q 48.484375 72.75 52.59375 71.296875 
z
" id="DejaVuSans-36"/>
    </defs>
    <g transform="translate(200.73375 35.472)scale(0.12 -0.12)">
     <use xlink:href="#DejaVuSans-77"/>
     <use x="81.787109" xlink:href="#DejaVuSans-69"/>
     <use x="109.570312" xlink:href="#DejaVuSans-6e"/>
     <use x="172.949219" xlink:href="#DejaVuSans-64"/>
     <use x="236.425781" xlink:href="#DejaVuSans-6f"/>
     <use x="297.607422" xlink:href="#DejaVuSans-77"/>
     <use x="379.394531" xlink:href="#DejaVuSans-3d"/>
     <use x="463.183594" xlink:href="#DejaVuSans-36"/>
     <use x="526.806641" xlink:href="#DejaVuSans-34"/>
    </g>
   </g>
  </g>
 </g>
 <defs>
  <clipPath id="p4771079727">
   <rect height="266.112" width="357.12" x="57.6" y="41.472"/>
  </clipPath>
 </defs>
</svg>
