<?xml version="1.0" encoding="utf-8" standalone="no"?>
<!DOCTYPE svg PUBLIC "-//W3C//DTD SVG 1.1//EN"
  "http://www.w3.org/Graphics/SVG/1.1/DTD/svg11.dtd">
<!-- Created with matplotlib (http://matplotlib.org/) -->
<svg height="345.6pt" version="1.1" viewBox="0 0 460.8 345.6" width="460.8pt" xmlns="http://www.w3.org/2000/svg" xmlns:xlink="http://www.w3.org/1999/xlink">
 <defs>
  <style type="text/css">
*{stroke-linecap:butt;stroke-linejoin:round;}
  </style>
 </defs>
 <g id="figure_1">
  <g id="patch_1">
   <path d="M 0 345.6 
L 460.8 345.6 
L 460.8 0 
L 0 0 
z
" style="fill:#ffffff;"/>
  </g>
  <g id="axes_1">
   <g id="patch_2">
    <path d="M 57.6 307.584 
L 414.72 307.584 
L 414.72 41.472 
L 57.6 41.472 
z
" style="fill:#ffffff;"/>
   </g>
   <g id="patch_3">
    <path clip-path="url(#p49444710fb)" d="M 73.832727 307.584 
L 77.079273 307.584 
L 77.079273 54.144 
L 73.832727 54.144 
z
" style="fill:#1f77b4;"/>
   </g>
   <g id="patch_4">
    <path clip-path="url(#p49444710fb)" d="M 77.079273 307.584 
L 80.325818 307.584 
L 80.325818 195.800578 
L 77.079273 195.800578 
z
" style="fill:#1f77b4;"/>
   </g>
   <g id="patch_5">
    <path clip-path="url(#p49444710fb)" d="M 80.325818 307.584 
L 83.572364 307.584 
L 83.572364 249.902653 
L 80.325818 249.902653 
z
" style="fill:#1f77b4;"/>
   </g>
   <g id="patch_6">
    <path clip-path="url(#p49444710fb)" d="M 83.572364 307.584 
L 86.818909 307.584 
L 86.818909 275.100139 
L 83.572364 275.100139 
z
" style="fill:#1f77b4;"/>
   </g>
   <g id="patch_7">
    <path clip-path="url(#p49444710fb)" d="M 86.818909 307.584 
L 90.065455 307.584 
L 90.065455 288.89607 
L 86.818909 288.89607 
z
" style="fill:#1f77b4;"/>
   </g>
   <g id="patch_8">
    <path clip-path="url(#p49444710fb)" d="M 90.065455 307.584 
L 93.312 307.584 
L 93.312 295.853034 
L 90.065455 295.853034 
z
" style="fill:#1f77b4;"/>
   </g>
   <g id="patch_9">
    <path clip-path="url(#p49444710fb)" d="M 93.312 307.584 
L 96.558545 307.584 
L 96.558545 300.489371 
L 93.312 300.489371 
z
" style="fill:#1f77b4;"/>
   </g>
   <g id="patch_10">
    <path clip-path="url(#p49444710fb)" d="M 96.558545 307.584 
L 99.805091 307.584 
L 99.805091 303.257407 
L 96.558545 303.257407 
z
" style="fill:#1f77b4;"/>
   </g>
   <g id="patch_11">
    <path clip-path="url(#p49444710fb)" d="M 99.805091 307.584 
L 103.051636 307.584 
L 103.051636 304.402971 
L 99.805091 304.402971 
z
" style="fill:#1f77b4;"/>
   </g>
   <g id="patch_12">
    <path clip-path="url(#p49444710fb)" d="M 103.051636 307.584 
L 106.298182 307.584 
L 106.298182 305.484619 
L 103.051636 305.484619 
z
" style="fill:#1f77b4;"/>
   </g>
   <g id="patch_13">
    <path clip-path="url(#p49444710fb)" d="M 106.298182 307.584 
L 109.544727 307.584 
L 109.544727 306.300772 
L 106.298182 306.300772 
z
" style="fill:#1f77b4;"/>
   </g>
   <g id="patch_14">
    <path clip-path="url(#p49444710fb)" d="M 109.544727 307.584 
L 112.791273 307.584 
L 112.791273 306.556434 
L 109.544727 306.556434 
z
" style="fill:#1f77b4;"/>
   </g>
   <g id="patch_15">
    <path clip-path="url(#p49444710fb)" d="M 112.791273 307.584 
L 116.037818 307.584 
L 116.037818 306.812097 
L 112.791273 306.812097 
z
" style="fill:#1f77b4;"/>
   </g>
   <g id="patch_16">
    <path clip-path="url(#p49444710fb)" d="M 116.037818 307.584 
L 119.284364 307.584 
L 119.284364 307.018593 
L 116.037818 307.018593 
z
" style="fill:#1f77b4;"/>
   </g>
   <g id="patch_17">
    <path clip-path="url(#p49444710fb)" d="M 119.284364 307.584 
L 122.530909 307.584 
L 122.530909 307.033343 
L 119.284364 307.033343 
z
" style="fill:#1f77b4;"/>
   </g>
   <g id="patch_18">
    <path clip-path="url(#p49444710fb)" d="M 122.530909 307.584 
L 125.777455 307.584 
L 125.777455 307.19559 
L 122.530909 307.19559 
z
" style="fill:#1f77b4;"/>
   </g>
   <g id="patch_19">
    <path clip-path="url(#p49444710fb)" d="M 125.777455 307.584 
L 129.024 307.584 
L 129.024 307.269339 
L 125.777455 307.269339 
z
" style="fill:#1f77b4;"/>
   </g>
   <g id="patch_20">
    <path clip-path="url(#p49444710fb)" d="M 129.024 307.584 
L 132.270545 307.584 
L 132.270545 307.333254 
L 129.024 307.333254 
z
" style="fill:#1f77b4;"/>
   </g>
   <g id="patch_21">
    <path clip-path="url(#p49444710fb)" d="M 132.270545 307.584 
L 135.517091 307.584 
L 135.517091 307.313588 
L 132.270545 307.313588 
z
" style="fill:#1f77b4;"/>
   </g>
   <g id="patch_22">
    <path clip-path="url(#p49444710fb)" d="M 135.517091 307.584 
L 138.763636 307.584 
L 138.763636 307.470919 
L 135.517091 307.470919 
z
" style="fill:#1f77b4;"/>
   </g>
   <g id="patch_23">
    <path clip-path="url(#p49444710fb)" d="M 138.763636 307.584 
L 142.010182 307.584 
L 142.010182 307.36767 
L 138.763636 307.36767 
z
" style="fill:#1f77b4;"/>
   </g>
   <g id="patch_24">
    <path clip-path="url(#p49444710fb)" d="M 142.010182 307.584 
L 145.256727 307.584 
L 145.256727 307.451252 
L 142.010182 307.451252 
z
" style="fill:#1f77b4;"/>
   </g>
   <g id="patch_25">
    <path clip-path="url(#p49444710fb)" d="M 145.256727 307.584 
L 148.503273 307.584 
L 148.503273 307.456169 
L 145.256727 307.456169 
z
" style="fill:#1f77b4;"/>
   </g>
   <g id="patch_26">
    <path clip-path="url(#p49444710fb)" d="M 148.503273 307.584 
L 151.749818 307.584 
L 151.749818 307.525001 
L 148.503273 307.525001 
z
" style="fill:#1f77b4;"/>
   </g>
   <g id="patch_27">
    <path clip-path="url(#p49444710fb)" d="M 151.749818 307.584 
L 154.996364 307.584 
L 154.996364 307.470919 
L 151.749818 307.470919 
z
" style="fill:#1f77b4;"/>
   </g>
   <g id="patch_28">
    <path clip-path="url(#p49444710fb)" d="M 154.996364 307.584 
L 158.242909 307.584 
L 158.242909 307.525001 
L 154.996364 307.525001 
z
" style="fill:#1f77b4;"/>
   </g>
   <g id="patch_29">
    <path clip-path="url(#p49444710fb)" d="M 158.242909 307.584 
L 161.489455 307.584 
L 161.489455 307.475835 
L 158.242909 307.475835 
z
" style="fill:#1f77b4;"/>
   </g>
   <g id="patch_30">
    <path clip-path="url(#p49444710fb)" d="M 161.489455 307.584 
L 164.736 307.584 
L 164.736 307.544667 
L 161.489455 307.544667 
z
" style="fill:#1f77b4;"/>
   </g>
   <g id="patch_31">
    <path clip-path="url(#p49444710fb)" d="M 164.736 307.584 
L 167.982545 307.584 
L 167.982545 307.534834 
L 164.736 307.534834 
z
" style="fill:#1f77b4;"/>
   </g>
   <g id="patch_32">
    <path clip-path="url(#p49444710fb)" d="M 167.982545 307.584 
L 171.229091 307.584 
L 171.229091 307.520084 
L 167.982545 307.520084 
z
" style="fill:#1f77b4;"/>
   </g>
   <g id="patch_33">
    <path clip-path="url(#p49444710fb)" d="M 171.229091 307.584 
L 174.475636 307.584 
L 174.475636 307.584 
L 171.229091 307.584 
z
" style="fill:#1f77b4;"/>
   </g>
   <g id="patch_34">
    <path clip-path="url(#p49444710fb)" d="M 174.475636 307.584 
L 177.722182 307.584 
L 177.722182 307.544667 
L 174.475636 307.544667 
z
" style="fill:#1f77b4;"/>
   </g>
   <g id="patch_35">
    <path clip-path="url(#p49444710fb)" d="M 177.722182 307.584 
L 180.968727 307.584 
L 180.968727 307.56925 
L 177.722182 307.56925 
z
" style="fill:#1f77b4;"/>
   </g>
   <g id="patch_36">
    <path clip-path="url(#p49444710fb)" d="M 180.968727 307.584 
L 184.215273 307.584 
L 184.215273 307.574167 
L 180.968727 307.574167 
z
" style="fill:#1f77b4;"/>
   </g>
   <g id="patch_37">
    <path clip-path="url(#p49444710fb)" d="M 184.215273 307.584 
L 187.461818 307.584 
L 187.461818 307.56925 
L 184.215273 307.56925 
z
" style="fill:#1f77b4;"/>
   </g>
   <g id="patch_38">
    <path clip-path="url(#p49444710fb)" d="M 187.461818 307.584 
L 190.708364 307.584 
L 190.708364 307.564334 
L 187.461818 307.564334 
z
" style="fill:#1f77b4;"/>
   </g>
   <g id="patch_39">
    <path clip-path="url(#p49444710fb)" d="M 190.708364 307.584 
L 193.954909 307.584 
L 193.954909 307.56925 
L 190.708364 307.56925 
z
" style="fill:#1f77b4;"/>
   </g>
   <g id="patch_40">
    <path clip-path="url(#p49444710fb)" d="M 193.954909 307.584 
L 197.201455 307.584 
L 197.201455 307.574167 
L 193.954909 307.574167 
z
" style="fill:#1f77b4;"/>
   </g>
   <g id="patch_41">
    <path clip-path="url(#p49444710fb)" d="M 197.201455 307.584 
L 200.448 307.584 
L 200.448 307.579083 
L 197.201455 307.579083 
z
" style="fill:#1f77b4;"/>
   </g>
   <g id="patch_42">
    <path clip-path="url(#p49444710fb)" d="M 200.448 307.584 
L 203.694545 307.584 
L 203.694545 307.574167 
L 200.448 307.574167 
z
" style="fill:#1f77b4;"/>
   </g>
   <g id="patch_43">
    <path clip-path="url(#p49444710fb)" d="M 203.694545 307.584 
L 206.941091 307.584 
L 206.941091 307.584 
L 203.694545 307.584 
z
" style="fill:#1f77b4;"/>
   </g>
   <g id="patch_44">
    <path clip-path="url(#p49444710fb)" d="M 206.941091 307.584 
L 210.187636 307.584 
L 210.187636 307.584 
L 206.941091 307.584 
z
" style="fill:#1f77b4;"/>
   </g>
   <g id="patch_45">
    <path clip-path="url(#p49444710fb)" d="M 210.187636 307.584 
L 213.434182 307.584 
L 213.434182 307.584 
L 210.187636 307.584 
z
" style="fill:#1f77b4;"/>
   </g>
   <g id="patch_46">
    <path clip-path="url(#p49444710fb)" d="M 213.434182 307.584 
L 216.680727 307.584 
L 216.680727 307.584 
L 213.434182 307.584 
z
" style="fill:#1f77b4;"/>
   </g>
   <g id="patch_47">
    <path clip-path="url(#p49444710fb)" d="M 216.680727 307.584 
L 219.927273 307.584 
L 219.927273 307.584 
L 216.680727 307.584 
z
" style="fill:#1f77b4;"/>
   </g>
   <g id="patch_48">
    <path clip-path="url(#p49444710fb)" d="M 219.927273 307.584 
L 223.173818 307.584 
L 223.173818 307.579083 
L 219.927273 307.579083 
z
" style="fill:#1f77b4;"/>
   </g>
   <g id="patch_49">
    <path clip-path="url(#p49444710fb)" d="M 223.173818 307.584 
L 226.420364 307.584 
L 226.420364 307.584 
L 223.173818 307.584 
z
" style="fill:#1f77b4;"/>
   </g>
   <g id="patch_50">
    <path clip-path="url(#p49444710fb)" d="M 226.420364 307.584 
L 229.666909 307.584 
L 229.666909 307.584 
L 226.420364 307.584 
z
" style="fill:#1f77b4;"/>
   </g>
   <g id="patch_51">
    <path clip-path="url(#p49444710fb)" d="M 229.666909 307.584 
L 232.913455 307.584 
L 232.913455 307.584 
L 229.666909 307.584 
z
" style="fill:#1f77b4;"/>
   </g>
   <g id="patch_52">
    <path clip-path="url(#p49444710fb)" d="M 232.913455 307.584 
L 236.16 307.584 
L 236.16 307.584 
L 232.913455 307.584 
z
" style="fill:#1f77b4;"/>
   </g>
   <g id="patch_53">
    <path clip-path="url(#p49444710fb)" d="M 236.16 307.584 
L 239.406545 307.584 
L 239.406545 307.584 
L 236.16 307.584 
z
" style="fill:#1f77b4;"/>
   </g>
   <g id="patch_54">
    <path clip-path="url(#p49444710fb)" d="M 239.406545 307.584 
L 242.653091 307.584 
L 242.653091 307.584 
L 239.406545 307.584 
z
" style="fill:#1f77b4;"/>
   </g>
   <g id="patch_55">
    <path clip-path="url(#p49444710fb)" d="M 242.653091 307.584 
L 245.899636 307.584 
L 245.899636 307.584 
L 242.653091 307.584 
z
" style="fill:#1f77b4;"/>
   </g>
   <g id="patch_56">
    <path clip-path="url(#p49444710fb)" d="M 245.899636 307.584 
L 249.146182 307.584 
L 249.146182 307.584 
L 245.899636 307.584 
z
" style="fill:#1f77b4;"/>
   </g>
   <g id="patch_57">
    <path clip-path="url(#p49444710fb)" d="M 249.146182 307.584 
L 252.392727 307.584 
L 252.392727 307.56925 
L 249.146182 307.56925 
z
" style="fill:#1f77b4;"/>
   </g>
   <g id="patch_58">
    <path clip-path="url(#p49444710fb)" d="M 252.392727 307.584 
L 255.639273 307.584 
L 255.639273 307.584 
L 252.392727 307.584 
z
" style="fill:#1f77b4;"/>
   </g>
   <g id="patch_59">
    <path clip-path="url(#p49444710fb)" d="M 255.639273 307.584 
L 258.885818 307.584 
L 258.885818 307.584 
L 255.639273 307.584 
z
" style="fill:#1f77b4;"/>
   </g>
   <g id="patch_60">
    <path clip-path="url(#p49444710fb)" d="M 258.885818 307.584 
L 262.132364 307.584 
L 262.132364 307.584 
L 258.885818 307.584 
z
" style="fill:#1f77b4;"/>
   </g>
   <g id="patch_61">
    <path clip-path="url(#p49444710fb)" d="M 262.132364 307.584 
L 265.378909 307.584 
L 265.378909 307.579083 
L 262.132364 307.579083 
z
" style="fill:#1f77b4;"/>
   </g>
   <g id="patch_62">
    <path clip-path="url(#p49444710fb)" d="M 265.378909 307.584 
L 268.625455 307.584 
L 268.625455 307.584 
L 265.378909 307.584 
z
" style="fill:#1f77b4;"/>
   </g>
   <g id="patch_63">
    <path clip-path="url(#p49444710fb)" d="M 268.625455 307.584 
L 271.872 307.584 
L 271.872 307.584 
L 268.625455 307.584 
z
" style="fill:#1f77b4;"/>
   </g>
   <g id="patch_64">
    <path clip-path="url(#p49444710fb)" d="M 271.872 307.584 
L 275.118545 307.584 
L 275.118545 307.584 
L 271.872 307.584 
z
" style="fill:#1f77b4;"/>
   </g>
   <g id="patch_65">
    <path clip-path="url(#p49444710fb)" d="M 275.118545 307.584 
L 278.365091 307.584 
L 278.365091 307.584 
L 275.118545 307.584 
z
" style="fill:#1f77b4;"/>
   </g>
   <g id="patch_66">
    <path clip-path="url(#p49444710fb)" d="M 278.365091 307.584 
L 281.611636 307.584 
L 281.611636 307.584 
L 278.365091 307.584 
z
" style="fill:#1f77b4;"/>
   </g>
   <g id="patch_67">
    <path clip-path="url(#p49444710fb)" d="M 281.611636 307.584 
L 284.858182 307.584 
L 284.858182 307.584 
L 281.611636 307.584 
z
" style="fill:#1f77b4;"/>
   </g>
   <g id="patch_68">
    <path clip-path="url(#p49444710fb)" d="M 284.858182 307.584 
L 288.104727 307.584 
L 288.104727 307.584 
L 284.858182 307.584 
z
" style="fill:#1f77b4;"/>
   </g>
   <g id="patch_69">
    <path clip-path="url(#p49444710fb)" d="M 288.104727 307.584 
L 291.351273 307.584 
L 291.351273 307.584 
L 288.104727 307.584 
z
" style="fill:#1f77b4;"/>
   </g>
   <g id="patch_70">
    <path clip-path="url(#p49444710fb)" d="M 291.351273 307.584 
L 294.597818 307.584 
L 294.597818 307.584 
L 291.351273 307.584 
z
" style="fill:#1f77b4;"/>
   </g>
   <g id="patch_71">
    <path clip-path="url(#p49444710fb)" d="M 294.597818 307.584 
L 297.844364 307.584 
L 297.844364 307.579083 
L 294.597818 307.579083 
z
" style="fill:#1f77b4;"/>
   </g>
   <g id="patch_72">
    <path clip-path="url(#p49444710fb)" d="M 297.844364 307.584 
L 301.090909 307.584 
L 301.090909 307.584 
L 297.844364 307.584 
z
" style="fill:#1f77b4;"/>
   </g>
   <g id="patch_73">
    <path clip-path="url(#p49444710fb)" d="M 301.090909 307.584 
L 304.337455 307.584 
L 304.337455 307.584 
L 301.090909 307.584 
z
" style="fill:#1f77b4;"/>
   </g>
   <g id="patch_74">
    <path clip-path="url(#p49444710fb)" d="M 304.337455 307.584 
L 307.584 307.584 
L 307.584 307.584 
L 304.337455 307.584 
z
" style="fill:#1f77b4;"/>
   </g>
   <g id="patch_75">
    <path clip-path="url(#p49444710fb)" d="M 307.584 307.584 
L 310.830545 307.584 
L 310.830545 307.584 
L 307.584 307.584 
z
" style="fill:#1f77b4;"/>
   </g>
   <g id="patch_76">
    <path clip-path="url(#p49444710fb)" d="M 310.830545 307.584 
L 314.077091 307.584 
L 314.077091 307.574167 
L 310.830545 307.574167 
z
" style="fill:#1f77b4;"/>
   </g>
   <g id="patch_77">
    <path clip-path="url(#p49444710fb)" d="M 314.077091 307.584 
L 317.323636 307.584 
L 317.323636 307.584 
L 314.077091 307.584 
z
" style="fill:#1f77b4;"/>
   </g>
   <g id="patch_78">
    <path clip-path="url(#p49444710fb)" d="M 317.323636 307.584 
L 320.570182 307.584 
L 320.570182 307.584 
L 317.323636 307.584 
z
" style="fill:#1f77b4;"/>
   </g>
   <g id="patch_79">
    <path clip-path="url(#p49444710fb)" d="M 320.570182 307.584 
L 323.816727 307.584 
L 323.816727 307.584 
L 320.570182 307.584 
z
" style="fill:#1f77b4;"/>
   </g>
   <g id="patch_80">
    <path clip-path="url(#p49444710fb)" d="M 323.816727 307.584 
L 327.063273 307.584 
L 327.063273 307.584 
L 323.816727 307.584 
z
" style="fill:#1f77b4;"/>
   </g>
   <g id="patch_81">
    <path clip-path="url(#p49444710fb)" d="M 327.063273 307.584 
L 330.309818 307.584 
L 330.309818 307.584 
L 327.063273 307.584 
z
" style="fill:#1f77b4;"/>
   </g>
   <g id="patch_82">
    <path clip-path="url(#p49444710fb)" d="M 330.309818 307.584 
L 333.556364 307.584 
L 333.556364 307.584 
L 330.309818 307.584 
z
" style="fill:#1f77b4;"/>
   </g>
   <g id="patch_83">
    <path clip-path="url(#p49444710fb)" d="M 333.556364 307.584 
L 336.802909 307.584 
L 336.802909 307.584 
L 333.556364 307.584 
z
" style="fill:#1f77b4;"/>
   </g>
   <g id="patch_84">
    <path clip-path="url(#p49444710fb)" d="M 336.802909 307.584 
L 340.049455 307.584 
L 340.049455 307.584 
L 336.802909 307.584 
z
" style="fill:#1f77b4;"/>
   </g>
   <g id="patch_85">
    <path clip-path="url(#p49444710fb)" d="M 340.049455 307.584 
L 343.296 307.584 
L 343.296 307.584 
L 340.049455 307.584 
z
" style="fill:#1f77b4;"/>
   </g>
   <g id="patch_86">
    <path clip-path="url(#p49444710fb)" d="M 343.296 307.584 
L 346.542545 307.584 
L 346.542545 307.584 
L 343.296 307.584 
z
" style="fill:#1f77b4;"/>
   </g>
   <g id="patch_87">
    <path clip-path="url(#p49444710fb)" d="M 346.542545 307.584 
L 349.789091 307.584 
L 349.789091 307.584 
L 346.542545 307.584 
z
" style="fill:#1f77b4;"/>
   </g>
   <g id="patch_88">
    <path clip-path="url(#p49444710fb)" d="M 349.789091 307.584 
L 353.035636 307.584 
L 353.035636 307.584 
L 349.789091 307.584 
z
" style="fill:#1f77b4;"/>
   </g>
   <g id="patch_89">
    <path clip-path="url(#p49444710fb)" d="M 353.035636 307.584 
L 356.282182 307.584 
L 356.282182 307.584 
L 353.035636 307.584 
z
" style="fill:#1f77b4;"/>
   </g>
   <g id="patch_90">
    <path clip-path="url(#p49444710fb)" d="M 356.282182 307.584 
L 359.528727 307.584 
L 359.528727 307.584 
L 356.282182 307.584 
z
" style="fill:#1f77b4;"/>
   </g>
   <g id="patch_91">
    <path clip-path="url(#p49444710fb)" d="M 359.528727 307.584 
L 362.775273 307.584 
L 362.775273 307.584 
L 359.528727 307.584 
z
" style="fill:#1f77b4;"/>
   </g>
   <g id="patch_92">
    <path clip-path="url(#p49444710fb)" d="M 362.775273 307.584 
L 366.021818 307.584 
L 366.021818 307.584 
L 362.775273 307.584 
z
" style="fill:#1f77b4;"/>
   </g>
   <g id="patch_93">
    <path clip-path="url(#p49444710fb)" d="M 366.021818 307.584 
L 369.268364 307.584 
L 369.268364 307.584 
L 366.021818 307.584 
z
" style="fill:#1f77b4;"/>
   </g>
   <g id="patch_94">
    <path clip-path="url(#p49444710fb)" d="M 369.268364 307.584 
L 372.514909 307.584 
L 372.514909 307.584 
L 369.268364 307.584 
z
" style="fill:#1f77b4;"/>
   </g>
   <g id="patch_95">
    <path clip-path="url(#p49444710fb)" d="M 372.514909 307.584 
L 375.761455 307.584 
L 375.761455 307.584 
L 372.514909 307.584 
z
" style="fill:#1f77b4;"/>
   </g>
   <g id="patch_96">
    <path clip-path="url(#p49444710fb)" d="M 375.761455 307.584 
L 379.008 307.584 
L 379.008 307.584 
L 375.761455 307.584 
z
" style="fill:#1f77b4;"/>
   </g>
   <g id="patch_97">
    <path clip-path="url(#p49444710fb)" d="M 379.008 307.584 
L 382.254545 307.584 
L 382.254545 307.584 
L 379.008 307.584 
z
" style="fill:#1f77b4;"/>
   </g>
   <g id="patch_98">
    <path clip-path="url(#p49444710fb)" d="M 382.254545 307.584 
L 385.501091 307.584 
L 385.501091 307.584 
L 382.254545 307.584 
z
" style="fill:#1f77b4;"/>
   </g>
   <g id="patch_99">
    <path clip-path="url(#p49444710fb)" d="M 385.501091 307.584 
L 388.747636 307.584 
L 388.747636 307.584 
L 385.501091 307.584 
z
" style="fill:#1f77b4;"/>
   </g>
   <g id="patch_100">
    <path clip-path="url(#p49444710fb)" d="M 388.747636 307.584 
L 391.994182 307.584 
L 391.994182 307.584 
L 388.747636 307.584 
z
" style="fill:#1f77b4;"/>
   </g>
   <g id="patch_101">
    <path clip-path="url(#p49444710fb)" d="M 391.994182 307.584 
L 395.240727 307.584 
L 395.240727 307.584 
L 391.994182 307.584 
z
" style="fill:#1f77b4;"/>
   </g>
   <g id="patch_102">
    <path clip-path="url(#p49444710fb)" d="M 395.240727 307.584 
L 398.487273 307.584 
L 398.487273 307.579083 
L 395.240727 307.579083 
z
" style="fill:#1f77b4;"/>
   </g>
   <g id="matplotlib.axis_1">
    <g id="xtick_1">
     <g id="line2d_1">
      <defs>
       <path d="M 0 0 
L 0 3.5 
" id="m8d6d5b4a5b" style="stroke:#000000;stroke-width:0.8;"/>
      </defs>
      <g>
       <use style="stroke:#000000;stroke-width:0.8;" x="73.832727" xlink:href="#m8d6d5b4a5b" y="307.584"/>
      </g>
     </g>
     <g id="text_1">
      <!-- 0.0 -->
      <defs>
       <path d="M 31.78125 66.40625 
Q 24.171875 66.40625 20.328125 58.90625 
Q 16.5 51.421875 16.5 36.375 
Q 16.5 21.390625 20.328125 13.890625 
Q 24.171875 6.390625 31.78125 6.390625 
Q 39.453125 6.390625 43.28125 13.890625 
Q 47.125 21.390625 47.125 36.375 
Q 47.125 51.421875 43.28125 58.90625 
Q 39.453125 66.40625 31.78125 66.40625 
z
M 31.78125 74.21875 
Q 44.046875 74.21875 50.515625 64.515625 
Q 56.984375 54.828125 56.984375 36.375 
Q 56.984375 17.96875 50.515625 8.265625 
Q 44.046875 -1.421875 31.78125 -1.421875 
Q 19.53125 -1.421875 13.0625 8.265625 
Q 6.59375 17.96875 6.59375 36.375 
Q 6.59375 54.828125 13.0625 64.515625 
Q 19.53125 74.21875 31.78125 74.21875 
z
" id="DejaVuSans-30"/>
       <path d="M 10.6875 12.40625 
L 21 12.40625 
L 21 0 
L 10.6875 0 
z
" id="DejaVuSans-2e"/>
      </defs>
      <g transform="translate(65.881165 322.182437)scale(0.1 -0.1)">
       <use xlink:href="#DejaVuSans-30"/>
       <use x="63.623047" xlink:href="#DejaVuSans-2e"/>
       <use x="95.410156" xlink:href="#DejaVuSans-30"/>
      </g>
     </g>
    </g>
    <g id="xtick_2">
     <g id="line2d_2">
      <g>
       <use style="stroke:#000000;stroke-width:0.8;" x="147.658588" xlink:href="#m8d6d5b4a5b" y="307.584"/>
      </g>
     </g>
     <g id="text_2">
      <!-- 0.5 -->
      <defs>
       <path d="M 10.796875 72.90625 
L 49.515625 72.90625 
L 49.515625 64.59375 
L 19.828125 64.59375 
L 19.828125 46.734375 
Q 21.96875 47.46875 24.109375 47.828125 
Q 26.265625 48.1875 28.421875 48.1875 
Q 40.625 48.1875 47.75 41.5 
Q 54.890625 34.8125 54.890625 23.390625 
Q 54.890625 11.625 47.5625 5.09375 
Q 40.234375 -1.421875 26.90625 -1.421875 
Q 22.3125 -1.421875 17.546875 -0.640625 
Q 12.796875 0.140625 7.71875 1.703125 
L 7.71875 11.625 
Q 12.109375 9.234375 16.796875 8.0625 
Q 21.484375 6.890625 26.703125 6.890625 
Q 35.15625 6.890625 40.078125 11.328125 
Q 45.015625 15.765625 45.015625 23.390625 
Q 45.015625 31 40.078125 35.4375 
Q 35.15625 39.890625 26.703125 39.890625 
Q 22.75 39.890625 18.8125 39.015625 
Q 14.890625 38.140625 10.796875 36.28125 
z
" id="DejaVuSans-35"/>
      </defs>
      <g transform="translate(139.707026 322.182437)scale(0.1 -0.1)">
       <use xlink:href="#DejaVuSans-30"/>
       <use x="63.623047" xlink:href="#DejaVuSans-2e"/>
       <use x="95.410156" xlink:href="#DejaVuSans-35"/>
      </g>
     </g>
    </g>
    <g id="xtick_3">
     <g id="line2d_3">
      <g>
       <use style="stroke:#000000;stroke-width:0.8;" x="221.484449" xlink:href="#m8d6d5b4a5b" y="307.584"/>
      </g>
     </g>
     <g id="text_3">
      <!-- 1.0 -->
      <defs>
       <path d="M 12.40625 8.296875 
L 28.515625 8.296875 
L 28.515625 63.921875 
L 10.984375 60.40625 
L 10.984375 69.390625 
L 28.421875 72.90625 
L 38.28125 72.90625 
L 38.28125 8.296875 
L 54.390625 8.296875 
L 54.390625 0 
L 12.40625 0 
z
" id="DejaVuSans-31"/>
      </defs>
      <g transform="translate(213.532887 322.182437)scale(0.1 -0.1)">
       <use xlink:href="#DejaVuSans-31"/>
       <use x="63.623047" xlink:href="#DejaVuSans-2e"/>
       <use x="95.410156" xlink:href="#DejaVuSans-30"/>
      </g>
     </g>
    </g>
    <g id="xtick_4">
     <g id="line2d_4">
      <g>
       <use style="stroke:#000000;stroke-width:0.8;" x="295.31031" xlink:href="#m8d6d5b4a5b" y="307.584"/>
      </g>
     </g>
     <g id="text_4">
      <!-- 1.5 -->
      <g transform="translate(287.358747 322.182437)scale(0.1 -0.1)">
       <use xlink:href="#DejaVuSans-31"/>
       <use x="63.623047" xlink:href="#DejaVuSans-2e"/>
       <use x="95.410156" xlink:href="#DejaVuSans-35"/>
      </g>
     </g>
    </g>
    <g id="xtick_5">
     <g id="line2d_5">
      <g>
       <use style="stroke:#000000;stroke-width:0.8;" x="369.136171" xlink:href="#m8d6d5b4a5b" y="307.584"/>
      </g>
     </g>
     <g id="text_5">
      <!-- 2.0 -->
      <defs>
       <path d="M 19.1875 8.296875 
L 53.609375 8.296875 
L 53.609375 0 
L 7.328125 0 
L 7.328125 8.296875 
Q 12.9375 14.109375 22.625 23.890625 
Q 32.328125 33.6875 34.8125 36.53125 
Q 39.546875 41.84375 41.421875 45.53125 
Q 43.3125 49.21875 43.3125 52.78125 
Q 43.3125 58.59375 39.234375 62.25 
Q 35.15625 65.921875 28.609375 65.921875 
Q 23.96875 65.921875 18.8125 64.3125 
Q 13.671875 62.703125 7.8125 59.421875 
L 7.8125 69.390625 
Q 13.765625 71.78125 18.9375 73 
Q 24.125 74.21875 28.421875 74.21875 
Q 39.75 74.21875 46.484375 68.546875 
Q 53.21875 62.890625 53.21875 53.421875 
Q 53.21875 48.921875 51.53125 44.890625 
Q 49.859375 40.875 45.40625 35.40625 
Q 44.1875 33.984375 37.640625 27.21875 
Q 31.109375 20.453125 19.1875 8.296875 
z
" id="DejaVuSans-32"/>
      </defs>
      <g transform="translate(361.184608 322.182437)scale(0.1 -0.1)">
       <use xlink:href="#DejaVuSans-32"/>
       <use x="63.623047" xlink:href="#DejaVuSans-2e"/>
       <use x="95.410156" xlink:href="#DejaVuSans-30"/>
      </g>
     </g>
    </g>
    <g id="text_6">
     <!-- $\%$ -->
     <defs>
      <path d="M 72.703125 32.078125 
Q 68.453125 32.078125 66.03125 28.46875 
Q 63.625 24.859375 63.625 18.40625 
Q 63.625 12.0625 66.03125 8.421875 
Q 68.453125 4.78125 72.703125 4.78125 
Q 76.859375 4.78125 79.265625 8.421875 
Q 81.6875 12.0625 81.6875 18.40625 
Q 81.6875 24.8125 79.265625 28.4375 
Q 76.859375 32.078125 72.703125 32.078125 
z
M 72.703125 38.28125 
Q 80.421875 38.28125 84.953125 32.90625 
Q 89.5 27.546875 89.5 18.40625 
Q 89.5 9.28125 84.9375 3.921875 
Q 80.375 -1.421875 72.703125 -1.421875 
Q 64.890625 -1.421875 60.34375 3.921875 
Q 55.8125 9.28125 55.8125 18.40625 
Q 55.8125 27.59375 60.375 32.9375 
Q 64.9375 38.28125 72.703125 38.28125 
z
M 22.3125 68.015625 
Q 18.109375 68.015625 15.6875 64.375 
Q 13.28125 60.75 13.28125 54.390625 
Q 13.28125 47.953125 15.671875 44.328125 
Q 18.0625 40.71875 22.3125 40.71875 
Q 26.5625 40.71875 28.96875 44.328125 
Q 31.390625 47.953125 31.390625 54.390625 
Q 31.390625 60.6875 28.953125 64.34375 
Q 26.515625 68.015625 22.3125 68.015625 
z
M 66.40625 74.21875 
L 74.21875 74.21875 
L 28.609375 -1.421875 
L 20.796875 -1.421875 
z
M 22.3125 74.21875 
Q 30.03125 74.21875 34.609375 68.875 
Q 39.203125 63.53125 39.203125 54.390625 
Q 39.203125 45.171875 34.640625 39.84375 
Q 30.078125 34.515625 22.3125 34.515625 
Q 14.546875 34.515625 10.03125 39.859375 
Q 5.515625 45.21875 5.515625 54.390625 
Q 5.515625 63.484375 10.046875 68.84375 
Q 14.59375 74.21875 22.3125 74.21875 
z
" id="DejaVuSans-25"/>
     </defs>
     <g transform="translate(231.36 335.860562)scale(0.1 -0.1)">
      <use transform="translate(0 0.78125)" xlink:href="#DejaVuSans-25"/>
     </g>
    </g>
   </g>
   <g id="matplotlib.axis_2">
    <g id="ytick_1">
     <g id="line2d_6">
      <defs>
       <path d="M 0 0 
L -3.5 0 
" id="mdfa45fe536" style="stroke:#000000;stroke-width:0.8;"/>
      </defs>
      <g>
       <use style="stroke:#000000;stroke-width:0.8;" x="57.6" xlink:href="#mdfa45fe536" y="307.584"/>
      </g>
     </g>
    </g>
    <g id="ytick_2">
     <g id="line2d_7">
      <g>
       <use style="stroke:#000000;stroke-width:0.8;" x="57.6" xlink:href="#mdfa45fe536" y="258.418174"/>
      </g>
     </g>
    </g>
    <g id="ytick_3">
     <g id="line2d_8">
      <g>
       <use style="stroke:#000000;stroke-width:0.8;" x="57.6" xlink:href="#mdfa45fe536" y="209.252348"/>
      </g>
     </g>
    </g>
    <g id="ytick_4">
     <g id="line2d_9">
      <g>
       <use style="stroke:#000000;stroke-width:0.8;" x="57.6" xlink:href="#mdfa45fe536" y="160.086522"/>
      </g>
     </g>
    </g>
    <g id="ytick_5">
     <g id="line2d_10">
      <g>
       <use style="stroke:#000000;stroke-width:0.8;" x="57.6" xlink:href="#mdfa45fe536" y="110.920696"/>
      </g>
     </g>
    </g>
    <g id="ytick_6">
     <g id="line2d_11">
      <g>
       <use style="stroke:#000000;stroke-width:0.8;" x="57.6" xlink:href="#mdfa45fe536" y="61.75487"/>
      </g>
     </g>
    </g>
   </g>
   <g id="patch_103">
    <path d="M 57.6 307.584 
L 57.6 41.472 
" style="fill:none;stroke:#000000;stroke-linecap:square;stroke-linejoin:miter;stroke-width:0.8;"/>
   </g>
   <g id="patch_104">
    <path d="M 414.72 307.584 
L 414.72 41.472 
" style="fill:none;stroke:#000000;stroke-linecap:square;stroke-linejoin:miter;stroke-width:0.8;"/>
   </g>
   <g id="patch_105">
    <path d="M 57.6 307.584 
L 414.72 307.584 
" style="fill:none;stroke:#000000;stroke-linecap:square;stroke-linejoin:miter;stroke-width:0.8;"/>
   </g>
   <g id="patch_106">
    <path d="M 57.6 41.472 
L 414.72 41.472 
" style="fill:none;stroke:#000000;stroke-linecap:square;stroke-linejoin:miter;stroke-width:0.8;"/>
   </g>
  </g>
 </g>
 <defs>
  <clipPath id="p49444710fb">
   <rect height="266.112" width="357.12" x="57.6" y="41.472"/>
  </clipPath>
 </defs>
</svg>
